<svg xmlns="http://www.w3.org/2000/svg" width="24" height="15" viewBox="0 0 24 15" fill="none">
  <g clip-path="url(#clip0_203_4786)">
    <path d="M15.237 1.6062H8.74219V13.4114H15.237V1.6062Z" fill="#FF5A00"/>
    <path d="M9.17534 7.50884C9.17534 5.11038 10.2898 2.98166 12 1.60626C10.7414 0.605081 9.15372 0 7.42194 0C3.31946 0 0 3.35832 0 7.50884C0 11.6594 3.31946 15.0177 7.42194 15.0177C9.15372 15.0177 10.7414 14.4126 12 13.4114C10.2874 12.0555 9.17534 9.90729 9.17534 7.50884Z" fill="#EB001B"/>
    <path d="M24 7.50884C24 11.6594 20.6805 15.0177 16.5781 15.0177C14.8463 15.0177 13.2586 14.4126 12 13.4114C13.7318 12.0336 14.8247 9.90729 14.8247 7.50884C14.8247 5.11038 13.7102 2.98166 12 1.60626C13.2562 0.605081 14.8439 0 16.5757 0C20.6805 0 24 3.38019 24 7.50884Z" fill="#F79E1B"/>
  </g>
  <defs>
    <clipPath id="clip0_203_4786">
      <rect width="24" height="15" fill="white"/>
    </clipPath>
  </defs>
</svg>
