<svg width="88" height="88" viewBox="0 0 88 88" fill="none" xmlns="http://www.w3.org/2000/svg">
<mask id="path-1-inside-1_207_4950" fill="white">
<path fill-rule="evenodd" clip-rule="evenodd" d="M2.39989 41.9399C1.14696 41.8456 0 42.7856 0 44.0421V66C0 78.1503 9.84974 88 22 88H66C78.1503 88 88 78.1503 88 66V22C88 9.84974 78.1503 0 66 0H22C20.2742 0 18.5948 0.198715 16.9835 0.574512C15.3221 0.961977 15.2324 3.17164 16.5966 4.19591C21.6992 8.02702 25 14.128 25 21C25 32.598 15.598 42 4 42C3.46166 42 2.92805 41.9797 2.39989 41.9399Z"/>
</mask>
<path fill-rule="evenodd" clip-rule="evenodd" d="M2.39989 41.9399C1.14696 41.8456 0 42.7856 0 44.0421V66C0 78.1503 9.84974 88 22 88H66C78.1503 88 88 78.1503 88 66V22C88 9.84974 78.1503 0 66 0H22C20.2742 0 18.5948 0.198715 16.9835 0.574512C15.3221 0.961977 15.2324 3.17164 16.5966 4.19591C21.6992 8.02702 25 14.128 25 21C25 32.598 15.598 42 4 42C3.46166 42 2.92805 41.9797 2.39989 41.9399Z" fill="#EF3124"/>
<path d="M16.5966 4.19591L15.3958 5.79529L16.5966 4.19591ZM2.39989 41.9399L2.24963 43.9343L2.39989 41.9399ZM2 66V44.0421H-2V66H2ZM22 86C10.9543 86 2 77.0457 2 66H-2C-2 79.2548 8.74517 90 22 90V86ZM66 86H22V90H66V86ZM86 66C86 77.0457 77.0457 86 66 86V90C79.2548 90 90 79.2548 90 66H86ZM86 22V66H90V22H86ZM66 2C77.0457 2 86 10.9543 86 22H90C90 8.74517 79.2548 -2 66 -2V2ZM22 2H66V-2H22V2ZM17.4377 2.52224C18.9012 2.18093 20.4282 2 22 2V-2C20.1202 -2 18.2884 -1.7835 16.5292 -1.37322L17.4377 2.52224ZM15.3958 5.79529C20.0169 9.26492 23 14.7838 23 21H27C27 13.4723 23.3815 6.78913 17.7974 2.59654L15.3958 5.79529ZM23 21C23 31.4934 14.4934 40 4 40V44C16.7025 44 27 33.7025 27 21H23ZM4 40C3.51185 40 3.02836 39.9816 2.55015 39.9456L2.24963 43.9343C2.82774 43.9779 3.41147 44 4 44V40ZM16.5292 -1.37322C14.7274 -0.953002 13.7815 0.52339 13.6621 1.98347C13.5484 3.37417 14.1464 4.85725 15.3958 5.79529L17.7974 2.59654C17.7435 2.55601 17.7038 2.5042 17.678 2.44575C17.6502 2.38272 17.647 2.33091 17.6488 2.30934C17.6505 2.28886 17.6518 2.33403 17.5959 2.40438C17.5678 2.43971 17.5329 2.47093 17.4959 2.4941C17.4589 2.51729 17.4352 2.52285 17.4377 2.52224L16.5292 -1.37322ZM2 44.0421C2 44.0379 2.0004 44.0373 2.00001 44.039C1.99968 44.0404 1.99937 44.0408 1.99997 44.0396C2.00127 44.0369 2.00918 44.0222 2.03217 44.0025C2.08368 43.9583 2.16439 43.9279 2.24963 43.9343L2.55015 39.9456C0.291362 39.7754 -2 41.4722 -2 44.0421H2Z" fill="white" fill-opacity="0.22" mask="url(#path-1-inside-1_207_4950)"/>
<path fill-rule="evenodd" clip-rule="evenodd" d="M56.6114 62.3997H31.3887V57.1554H56.6114V62.3997ZM56.0584 50.0381H50.5554L48.8787 44.7581H38.9252L37.1146 50.0381H31.9416L39.7457 27.8389C40.5038 25.6895 41.3868 24.0038 44.2319 24.0038C47.0681 24.0038 47.8976 25.6984 48.62 27.8389L56.0584 50.0381ZM47.4427 40.3076L44.0981 29.7922H43.9643L40.4235 40.3076H47.4427Z" fill="white"/>
</svg>
