<?xml version="1.0" encoding="UTF-8"?>
<svg xmlns="http://www.w3.org/2000/svg" width="512" height="512" viewBox="0 0 512 512">
  <g id="_Слой_2">
    <g>
      <path d="M256,511.5c-68.25,0-132.41-26.58-180.67-74.83C27.08,388.41.5,324.25.5,256S27.08,123.59,75.33,75.33C123.59,27.08,187.75.5,256,.5s132.41,26.58,180.67,74.83c48.26,48.26,74.83,112.42,74.83,180.67s-26.58,132.41-74.83,180.67c-48.26,48.26-112.42,74.83-180.67,74.83Z" fill="#fff" stroke-width="0"/>
      <path d="M256,1c34.43,0,67.82,6.74,99.26,20.04,30.37,12.84,57.64,31.23,81.05,54.65,23.42,23.42,41.81,50.69,54.65,81.06,13.3,31.44,20.04,64.83,20.04,99.26s-6.74,67.82-20.04,99.26c-12.84,30.37-31.23,57.64-54.65,81.05s-50.69,41.81-81.05,54.65c-31.44,13.3-64.83,20.04-99.26,20.04s-67.82-6.74-99.26-20.04c-30.37-12.84-57.64-31.23-81.06-54.65-23.42-23.42-41.81-50.69-54.65-81.05C7.74,323.82,1,290.43,1,256s6.74-67.82,20.04-99.26c12.84-30.37,31.23-57.64,54.65-81.06,23.42-23.42,50.69-41.81,81.06-54.65C188.18,7.74,221.57,1,256,1M256,0C114.62,0,0,114.62,0,256s114.62,256,256,256,256-114.62,256-256S397.38,0,256,0h0Z" fill="#759c5c" stroke-width="0"/>
    </g>
  </g>
  <g id="_Слой_1">
    <path d="M170.18,208.02l-33.39,102.08h-25.37l-22.46-69.12-23.19,69.12h-25.23L7,208.02h24.5l23.04,71.75,24.06-71.75h21.87l23.33,72.33,23.77-72.33h22.6Z" fill="#759c5c" stroke-width="0"/>
    <path d="M190.96,306.09c-6.56-3.45-11.69-8.24-15.38-14.36-3.7-6.13-5.54-13.07-5.54-20.85s1.85-14.73,5.54-20.85c3.69-6.13,8.82-10.91,15.38-14.36,6.56-3.45,13.97-5.18,22.24-5.18s15.65,1.73,22.17,5.18c6.51,3.45,11.62,8.24,15.31,14.36,3.69,6.12,5.54,13.08,5.54,20.85s-1.85,14.73-5.54,20.85c-3.7,6.12-8.8,10.91-15.31,14.36-6.51,3.45-13.9,5.18-22.17,5.18s-15.68-1.72-22.24-5.18ZM227.56,286.7c3.74-3.94,5.61-9.21,5.61-15.82s-1.87-11.88-5.61-15.82c-3.74-3.94-8.53-5.91-14.36-5.91s-10.65,1.97-14.44,5.91c-3.79,3.94-5.69,9.21-5.69,15.82s1.9,11.88,5.69,15.82c3.79,3.94,8.6,5.91,14.44,5.91s10.62-1.97,14.36-5.91Z" fill="#759c5c" stroke-width="0"/>
    <path d="M296.32,233.4h20.12v17.5h-19.54v59.21h-22.75v-59.21h-12.1v-17.5h12.1v-3.5c0-8.94,2.65-16.04,7.95-21.29,5.3-5.25,12.76-7.87,22.39-7.87,3.4,0,6.63.36,9.7,1.09s5.61,1.77,7.66,3.14l-5.98,16.48c-2.62-1.85-5.69-2.77-9.19-2.77-6.9,0-10.35,3.79-10.35,11.37v3.35Z" fill="#759c5c" stroke-width="0"/>
    <path d="M352.76,233.4h20.12v17.5h-19.54v59.21h-22.75v-59.21h-12.1v-17.5h12.1v-3.5c0-8.94,2.65-16.04,7.95-21.29,5.3-5.25,12.76-7.87,22.39-7.87,3.4,0,6.63.36,9.7,1.09s5.61,1.77,7.66,3.14l-5.98,16.48c-2.62-1.85-5.69-2.77-9.19-2.77-6.9,0-10.35,3.79-10.35,11.37v3.35ZM384.26,201.9h22.75v108.2h-22.75v-108.2Z" fill="#759c5c" stroke-width="0"/>
    <path d="M504.56,277.29h-59.35c1.07,4.86,3.6,8.7,7.58,11.52,3.98,2.82,8.94,4.23,14.87,4.23,4.08,0,7.7-.61,10.86-1.82,3.16-1.21,6.1-3.14,8.82-5.76l12.1,13.12c-7.39,8.46-18.18,12.69-32.37,12.69-8.85,0-16.67-1.72-23.48-5.18-6.81-3.45-12.06-8.24-15.75-14.36-3.7-6.13-5.54-13.07-5.54-20.85s1.82-14.61,5.47-20.78c3.65-6.17,8.65-10.99,15.02-14.44,6.37-3.45,13.49-5.18,21.36-5.18s14.63,1.65,20.85,4.96c6.22,3.31,11.11,8.05,14.66,14.22,3.55,6.18,5.32,13.34,5.32,21.51,0,.29-.15,2.33-.44,6.13ZM451.33,252.06c-3.5,2.92-5.64,6.9-6.42,11.96h38.65c-.78-4.96-2.92-8.92-6.42-11.88-3.5-2.96-7.78-4.45-12.83-4.45s-9.48,1.46-12.98,4.37Z" fill="#759c5c" stroke-width="0"/>
  </g>
</svg>
