<svg xmlns="http://www.w3.org/2000/svg" width="89" height="28" viewBox="0 0 89 28" fill="none">
  <path d="M83.0144 0.399414H77.4194C75.7279 0.399414 74.4268 0.932747 73.6461 2.66608L62.9766 27.5994H70.5233C70.5233 27.5994 71.8245 24.2661 72.0847 23.4661C72.8654 23.4661 80.282 23.4661 81.3229 23.4661C81.5832 24.3994 82.2337 27.4661 82.2337 27.4661H88.9998L83.0144 0.399414ZM74.1665 17.8661C74.8171 16.2661 77.0291 10.2661 77.0291 10.2661C77.0291 10.3994 77.6797 8.66608 77.9399 7.73275L78.4604 10.1327C78.4604 10.1327 79.8916 16.6661 80.1519 17.9994H74.1665V17.8661Z" fill="#00579F"/>
  <path d="M63.498 18.6667C63.498 24.2667 58.5536 28 50.8768 28C47.6239 28 44.5011 27.3333 42.8096 26.5333L43.8505 20.4L44.7613 20.8C47.1034 21.8667 48.6648 22.2667 51.5273 22.2667C53.6092 22.2667 55.8212 21.4667 55.8212 19.6C55.8212 18.4 54.9104 17.6 52.0478 16.2667C49.3154 14.9333 45.6721 12.8 45.6721 8.93333C45.6721 3.6 50.7467 0 57.903 0C60.6355 0 62.9776 0.533333 64.4088 1.2L63.3679 7.06667L62.8474 6.53333C61.5463 6 59.8548 5.46667 57.3826 5.46667C54.6501 5.6 53.349 6.8 53.349 7.86667C53.349 9.06667 54.9104 10 57.3826 11.2C61.5463 13.2 63.498 15.4667 63.498 18.6667Z" fill="#00579F"/>
  <path d="M0 0.667245L0.130116 0.133911H11.3201C12.8815 0.133911 14.0525 0.667245 14.4429 2.40058L16.9151 14.4006C14.4429 8.00058 8.71778 2.80058 0 0.667245Z" fill="#FAA61A"/>
  <path d="M32.66 0.398836L21.3399 27.4655H13.6631L7.15729 4.79884C11.8415 7.8655 15.745 12.6655 17.1762 15.9988L17.9569 18.7988L24.9832 0.265503H32.66V0.398836Z" fill="#00579F"/>
  <path d="M35.6516 0.265503H42.808L38.2539 27.4655H31.0975L35.6516 0.265503Z" fill="#00579F"/>
</svg>
