<svg xmlns="http://www.w3.org/2000/svg" width="18" height="18" viewBox="0 0 18 18" fill="none">
  <path d="M15.5833 3.33333H11.8333V6.16667H6.16667V3.33333H2.41667C1.63455 3.33333 1 3.96788 1 4.75V15.1389C1 15.921 1.63455 16.5556 2.41667 16.5556H15.5833C16.3655 16.5556 17 15.921 17 15.1389V4.75C17 3.96788 16.3655 3.33333 15.5833 3.33333ZM9 8.05555C10.0418 8.05555 10.8889 8.9026 10.8889 9.94444C10.8889 10.9863 10.0418 11.8333 9 11.8333C7.95816 11.8333 7.11111 10.9863 7.11111 9.94444C7.11111 8.9026 7.95816 8.05555 9 8.05555ZM11.7536 14.6667H6.24635C5.93941 14.6667 5.69149 14.3715 5.78594 14.0823C6.0309 13.3267 6.74219 12.7778 7.58333 12.7778H7.82535C8.18837 12.9283 8.58385 13.0139 9 13.0139C9.41615 13.0139 9.81458 12.9283 10.1747 12.7778H10.4167C11.2549 12.7778 11.9661 13.3238 12.2141 14.0823C12.3085 14.3715 12.0606 14.6667 11.7536 14.6667ZM10.8889 2.38889C10.8889 1.86649 10.4668 1.44444 9.94444 1.44444H8.05556C7.53316 1.44444 7.11111 1.86649 7.11111 2.38889V5.22222H10.8889V2.38889Z" fill="white"/>
</svg>
