<svg width="30" height="18" viewBox="0 0 30 18" fill="none" xmlns="http://www.w3.org/2000/svg">
<g clip-path="url(#clip0_203_4814)">
<path d="M19.0462 1.92749H10.9277V16.0937H19.0462V1.92749Z" fill="#D1D1D1"/>
<path d="M11.4692 9.0106C11.4692 6.13246 12.8623 3.578 15 1.92751C13.4267 0.726097 11.4422 0 9.27742 0C4.14932 0 0 4.02999 0 9.0106C0 13.9912 4.14932 18.0212 9.27742 18.0212C11.4422 18.0212 13.4267 17.2951 15 16.0937C12.8593 14.4665 11.4692 11.8887 11.4692 9.0106Z" fill="#C5C5C5"/>
<path d="M30 9.0106C30 13.9912 25.8507 18.0212 20.7226 18.0212C18.5578 18.0212 16.5733 17.2951 15 16.0937C17.1647 14.4403 18.5308 11.8887 18.5308 9.0106C18.5308 6.13246 17.1377 3.578 15 1.92751C16.5703 0.726097 18.5548 0 20.7196 0C25.8507 0 30 4.05623 30 9.0106Z" fill="#E0E0E0"/>
</g>
<defs>
<clipPath id="clip0_203_4814">
<rect width="30" height="18" fill="white"/>
</clipPath>
</defs>
</svg>
