<svg xmlns="http://www.w3.org/2000/svg" viewBox="0 0 28 28">
  <path d="M13.3 21.1878L21.9287 12.5591C20.4771 11.9527 19.1587 11.0672 18.0483 9.95279C16.9334 8.84218 16.0474 7.52338 15.4408 6.07129L6.81216 14.7C6.139 15.3731 5.80183 15.7103 5.5125 16.0813C5.17112 16.5193 4.87814 16.993 4.63866 17.4941C4.43683 17.9188 4.28633 18.3715 3.98533 19.2745L2.39633 24.038C2.3232 24.2561 2.31235 24.4902 2.365 24.7142C2.41765 24.9381 2.53172 25.1429 2.69438 25.3056C2.85704 25.4682 3.06185 25.5823 3.28578 25.635C3.50971 25.6876 3.74389 25.6768 3.962 25.6036L8.7255 24.0146C9.62966 23.7136 10.0812 23.5631 10.5058 23.3613C11.0091 23.1217 11.48 22.8305 11.9187 22.4875C12.2897 22.1981 12.6268 21.861 13.3 21.1878ZM24.3227 10.1651C25.183 9.30479 25.6663 8.13791 25.6663 6.92121C25.6663 5.7045 25.183 4.53763 24.3227 3.67729C23.4623 2.81695 22.2955 2.33362 21.0787 2.33362C19.862 2.33362 18.6952 2.81695 17.8348 3.67729L16.8 4.71213L16.8443 4.84163C17.3541 6.30087 18.1887 7.62528 19.285 8.71496C20.4073 9.84408 21.778 10.6951 23.2878 11.2L24.3227 10.1651Z"/>
</svg>
