<svg xmlns="http://www.w3.org/2000/svg" width="5" height="5" viewBox="0 0 5 5" fill="none">
  <path d="M0.625445 3.95829H4.37544C4.41341 3.95817 4.45063 3.9477 4.48309 3.92801C4.51554 3.90831 4.54202 3.88013 4.55965 3.84651C4.57729 3.81289 4.58542 3.77509 4.58317 3.73719C4.58093 3.69929 4.56839 3.66272 4.5469 3.63142L2.6719 0.923086C2.59419 0.810794 2.40711 0.810794 2.3292 0.923086L0.454195 3.63142C0.432492 3.66266 0.419765 3.69925 0.417396 3.73721C0.415028 3.77517 0.423108 3.81306 0.44076 3.84675C0.458413 3.88045 0.484961 3.90866 0.517521 3.92832C0.550081 3.94799 0.587408 3.95835 0.625445 3.95829Z" fill="#759C5C"/>
</svg>
