<svg xmlns="http://www.w3.org/2000/svg" width="16" height="16" viewBox="0 0 16 16" fill="none">
  <path d="M11.334 2.22664C12.3395 2.80721 13.1759 3.64032 13.7605 4.6435C14.3451 5.64669 14.6576 6.78515 14.6669 7.9462C14.6763 9.10724 14.3823 10.2506 13.814 11.2631C13.2457 12.2756 12.4228 13.1221 11.4268 13.7188C10.4308 14.3156 9.29623 14.6419 8.13538 14.6653C6.97454 14.6888 5.82768 14.4087 4.80835 13.8528C3.78902 13.2968 2.93256 12.4843 2.32376 11.4956C1.71496 10.507 1.37492 9.37644 1.33732 8.21597L1.33398 7.99997L1.33732 7.78397C1.37465 6.63263 1.70968 5.51061 2.30974 4.5273C2.90981 3.54399 3.75442 2.73294 4.76125 2.17322C5.76807 1.61351 6.90275 1.32423 8.05465 1.33359C9.20656 1.34295 10.3364 1.65063 11.334 2.22664ZM8.00065 3.99997C7.83736 3.99999 7.67976 4.05994 7.55774 4.16845C7.43571 4.27695 7.35776 4.42647 7.33865 4.58864L7.33398 4.66664V7.99997L7.33998 8.0873C7.35518 8.20297 7.40047 8.31262 7.47132 8.4053L7.52932 8.47197L9.52932 10.472L9.59198 10.5266C9.7089 10.6173 9.85267 10.6666 10.0007 10.6666C10.1486 10.6666 10.2924 10.6173 10.4093 10.5266L10.472 10.4713L10.5273 10.4086C10.618 10.2917 10.6673 10.1479 10.6673 9.99997C10.6673 9.85199 10.618 9.70822 10.5273 9.5913L10.472 9.52864L8.66732 7.7233V4.66664L8.66265 4.58864C8.64355 4.42647 8.56559 4.27695 8.44357 4.16845C8.32154 4.05994 8.16394 3.99999 8.00065 3.99997Z" fill="#759C5C"/>
</svg>
