<svg xmlns="http://www.w3.org/2000/svg" width="10" height="10" viewBox="0 0 10 10" fill="none">
  <g clip-path="url(#clip0_62_1081)">
    <path fill-rule="evenodd" clip-rule="evenodd" d="M5.00015 0.428102C4.85246 0.427873 4.70766 0.468984 4.58213 0.546783L0.685425 3.09843C0.408502 3.28107 0.324106 3.59557 0.430919 3.86393C0.533777 4.12239 0.793557 4.29711 1.10345 4.29711H8.89685C9.20674 4.29711 9.46652 4.12239 9.56938 3.86393C9.6762 3.59557 9.5918 3.28107 9.31554 3.09909L9.31488 3.09843L5.41817 0.546783C5.29264 0.468984 5.14784 0.427873 5.00015 0.428102ZM0.384766 8.21557C0.384766 7.81997 0.761909 7.62942 1.04411 7.62942H1.08037L1.07839 7.59382V5.47667C1.07839 5.38924 1.11313 5.30539 1.17495 5.24356C1.23678 5.18174 1.32063 5.147 1.40806 5.147H2.50521C2.59264 5.147 2.67649 5.18174 2.73832 5.24356C2.80014 5.30539 2.83488 5.38924 2.83488 5.47667V7.59382L2.8329 7.62942H4.12389L4.12191 7.59382V5.47667C4.12191 5.38924 4.15664 5.30539 4.21847 5.24356C4.28029 5.18174 4.36415 5.147 4.45158 5.147H5.54872C5.59201 5.147 5.63488 5.15553 5.67488 5.1721C5.71488 5.18866 5.75122 5.21295 5.78183 5.24356C5.81245 5.27417 5.83673 5.31052 5.8533 5.35051C5.86986 5.39051 5.87839 5.43338 5.87839 5.47667V7.59382L5.87641 7.62942H7.1674L7.16543 7.59382V5.47667C7.16543 5.38924 7.20016 5.30539 7.26198 5.24356C7.32381 5.18174 7.40766 5.147 7.4951 5.147H8.59224C8.67967 5.147 8.76353 5.18174 8.82535 5.24356C8.88718 5.30539 8.92191 5.38924 8.92191 5.47667V7.59382L8.91993 7.62942H8.95619C9.23839 7.62942 9.61553 7.81997 9.61553 8.21623V8.98568C9.61553 9.38129 9.23839 9.57184 8.95619 9.57184H1.04411C0.761909 9.57184 0.384766 9.38129 0.384766 8.98502V8.21557Z" fill="white"/>
  </g>
  <defs>
    <clipPath id="clip0_62_1081">
      <rect width="9.23077" height="9.23077" fill="white" transform="translate(0.384766 0.384583)"/>
    </clipPath>
  </defs>
</svg>
