<svg xmlns="http://www.w3.org/2000/svg" width="10" height="10" viewBox="0 0 10 10" fill="none">
  <g clip-path="url(#clip0_62_1088)">
    <path d="M5.00113 0.384705C7.5502 0.384705 9.61651 2.45101 9.61651 5.00009C9.61651 7.54917 7.5502 9.61547 5.00113 9.61547C2.45205 9.61547 0.385742 7.54917 0.385742 5.00009C0.385742 2.45101 2.45205 0.384705 5.00113 0.384705ZM4.67482 3.36809L3.36913 4.67378C3.2826 4.76033 3.23399 4.87771 3.23399 5.00009C3.23399 5.12247 3.2826 5.23985 3.36913 5.3264L4.67482 6.63209C4.76137 6.71861 4.87874 6.76722 5.00113 6.76722C5.12351 6.76722 5.24088 6.71861 5.32743 6.63209L6.63313 5.3264C6.71965 5.23985 6.76826 5.12247 6.76826 5.00009C6.76826 4.87771 6.71965 4.76033 6.63313 4.67378L5.32743 3.36809C5.24088 3.28156 5.12351 3.23296 5.00113 3.23296C4.87874 3.23296 4.76137 3.28156 4.67482 3.36809Z" fill="white"/>
  </g>
  <defs>
    <clipPath id="clip0_62_1088">
      <rect width="9.23077" height="9.23077" fill="white" transform="translate(0.384766 0.384644)"/>
    </clipPath>
  </defs>
</svg>
