<svg xmlns="http://www.w3.org/2000/svg" width="5" height="5" viewBox="0 0 5 5" fill="none">
  <g clip-path="url(#clip0_207_6010)">
    <path d="M4.37456 1.04171L0.624556 1.04171C0.586589 1.04182 0.549373 1.0523 0.516915 1.07199C0.484456 1.09169 0.457984 1.11986 0.440348 1.15349C0.422712 1.18711 0.414579 1.22491 0.416826 1.26281C0.419072 1.30071 0.431613 1.33728 0.453097 1.36858L2.3281 4.07691C2.40581 4.18921 2.59289 4.18921 2.6708 4.07691L4.54581 1.36858C4.56751 1.33734 4.58024 1.30075 4.5826 1.26279C4.58497 1.22483 4.57689 1.18694 4.55924 1.15325C4.54159 1.11955 4.51504 1.09134 4.48248 1.07168C4.44992 1.05201 4.41259 1.04165 4.37456 1.04171Z" fill="#D74747"/>
  </g>
  <defs>
    <clipPath id="clip0_207_6010">
      <rect width="5" height="5" fill="white" transform="translate(5 5) rotate(-180)"/>
    </clipPath>
  </defs>
</svg>
