<svg xmlns="http://www.w3.org/2000/svg" viewBox="0 0 16 16">
  <path d="M3.88267 2.4213L8 6.53863L12.096 2.44263C12.1865 2.34633 12.2955 2.2693 12.4164 2.21614C12.5374 2.16299 12.6679 2.13481 12.8 2.1333C13.0829 2.1333 13.3542 2.24568 13.5543 2.44572C13.7543 2.64576 13.8667 2.91707 13.8667 3.19997C13.8692 3.33074 13.8449 3.46065 13.7954 3.58171C13.7458 3.70277 13.6721 3.81243 13.5787 3.90397L9.42934 7.99997L13.5787 12.1493C13.7545 12.3213 13.8576 12.5542 13.8667 12.8C13.8667 13.0829 13.7543 13.3542 13.5543 13.5542C13.3542 13.7543 13.0829 13.8666 12.8 13.8666C12.6641 13.8723 12.5284 13.8496 12.4017 13.8C12.275 13.7504 12.16 13.675 12.064 13.5786L8 9.4613L3.89334 13.568C3.80321 13.6611 3.69554 13.7354 3.57654 13.7866C3.45754 13.8379 3.32957 13.8651 3.2 13.8666C2.91711 13.8666 2.6458 13.7543 2.44576 13.5542C2.24572 13.3542 2.13334 13.0829 2.13334 12.8C2.13085 12.6692 2.15511 12.5393 2.20464 12.4182C2.25416 12.2972 2.3279 12.1875 2.42134 12.096L6.57067 7.99997L2.42134 3.85063C2.24553 3.67864 2.14245 3.44574 2.13334 3.19997C2.13334 2.91707 2.24572 2.64576 2.44576 2.44572C2.6458 2.24568 2.91711 2.1333 3.2 2.1333C3.456 2.1365 3.70134 2.23997 3.88267 2.4213Z"/>
</svg>
