<svg xmlns="http://www.w3.org/2000/svg" width="24" height="24" viewBox="0 0 24 24" fill="none">
  <path d="M21.06 4.01807C21.5238 4.31167 21.9057 4.71795 22.17 5.199C22.4344 5.68006 22.5727 6.22024 22.572 6.76916V17.304C22.572 20.2136 20.2142 22.5714 17.3045 22.5714H6.7697C6.22052 22.5715 5.68023 22.4328 5.19894 22.1683C4.71765 21.9038 4.31096 21.522 4.0166 21.0584L4.13901 21.0644L4.26141 21.0664H17.3045C18.3024 21.0664 19.2594 20.67 19.965 19.9644C20.6706 19.2588 21.067 18.3019 21.067 17.304V4.26087C21.0671 4.17988 21.0647 4.09891 21.06 4.01807ZM6.51887 11.5349C6.25278 11.5349 5.99758 11.6406 5.80942 11.8288C5.62126 12.0169 5.51556 12.2721 5.51556 12.5382C5.51556 12.8043 5.62126 13.0595 5.80942 13.2477C5.99758 13.4358 6.25278 13.5416 6.51887 13.5416C6.78497 13.5416 7.04017 13.4358 7.22833 13.2477C7.41649 13.0595 7.52219 12.8043 7.52219 12.5382C7.52219 12.2721 7.41649 12.0169 7.22833 11.8288C7.04017 11.6406 6.78497 11.5349 6.51887 11.5349Z" fill="white"/>
  <path d="M16.8022 1H4.26078C3.39597 1 2.56658 1.34355 1.95506 1.95506C1.34355 2.56658 1 3.39597 1 4.26078V16.8022C1 17.2305 1.08434 17.6545 1.24821 18.0501C1.41208 18.4457 1.65227 18.8052 1.95506 19.108C2.25785 19.4108 2.61732 19.6509 3.01293 19.8148C3.40855 19.9787 3.83257 20.063 4.26078 20.063H16.8022C17.2305 20.063 17.6545 19.9787 18.0501 19.8148C18.4457 19.6509 18.8052 19.4108 19.108 19.108C19.4108 18.8052 19.6509 18.4457 19.8148 18.0501C19.9787 17.6545 20.063 17.2305 20.063 16.8022V4.26078C20.063 3.83257 19.9787 3.40855 19.8148 3.01293C19.6509 2.61732 19.4108 2.25785 19.108 1.95506C18.8052 1.65227 18.4457 1.41208 18.0501 1.24821C17.6545 1.08434 17.2305 1 16.8022 1ZM4.00995 12.5381C4.00995 11.8729 4.27422 11.2349 4.74461 10.7645C5.21501 10.2941 5.853 10.0299 6.51824 10.0299C7.18349 10.0299 7.82148 10.2941 8.29188 10.7645C8.76227 11.2349 9.02654 11.8729 9.02654 12.5381C9.02654 13.2034 8.76227 13.8414 8.29188 14.3118C7.82148 14.7822 7.18349 15.0464 6.51824 15.0464C5.853 15.0464 5.21501 14.7822 4.74461 14.3118C4.27422 13.8414 4.00995 13.2034 4.00995 12.5381ZM11.0332 12.2873C11.0332 12.0877 11.1125 11.8963 11.2536 11.7552C11.3947 11.6141 11.5861 11.5348 11.7857 11.5348H16.8022C17.0018 11.5348 17.1932 11.6141 17.3343 11.7552C17.4755 11.8963 17.5547 12.0877 17.5547 12.2873C17.5547 12.4869 17.4755 12.6783 17.3343 12.8194C17.1932 12.9605 17.0018 13.0398 16.8022 13.0398H11.7857C11.5861 13.0398 11.3947 12.9605 11.2536 12.8194C11.1125 12.6783 11.0332 12.4869 11.0332 12.2873ZM4.00995 7.27073C4.00995 7.07116 4.08923 6.87976 4.23035 6.73864C4.37147 6.59753 4.56287 6.51824 4.76244 6.51824H16.8022C17.0018 6.51824 17.1932 6.59753 17.3343 6.73864C17.4755 6.87976 17.5547 7.07116 17.5547 7.27073C17.5547 7.4703 17.4755 7.6617 17.3343 7.80282C17.1932 7.94394 17.0018 8.02322 16.8022 8.02322H4.76244C4.56287 8.02322 4.37147 7.94394 4.23035 7.80282C4.08923 7.6617 4.00995 7.4703 4.00995 7.27073Z" fill="white"/>
</svg>
