<svg viewBox="0 0 28 28" xmlns="http://www.w3.org/2000/svg">
  <path d="M24.5 18.8335V20.4167C24.5 21.3663 24.0555 22.1783 23.4383 22.8165C22.8282 23.4488 21.9998 23.9645 21.0677 24.3728C19.1987 25.1895 16.6997 25.6667 14 25.6667C11.3003 25.6667 8.80133 25.1907 6.93233 24.3728C6.00017 23.9645 5.17183 23.4488 4.56167 22.8165C3.99583 22.2332 3.57583 21.5005 3.50933 20.6512L3.5 20.4167V18.8335C4.04211 19.1431 4.62311 19.4133 5.243 19.6443C7.61133 20.5205 10.7088 21.0093 14 21.0093C17.2912 21.0093 20.3887 20.5205 22.757 19.6443C23.2221 19.4717 23.6651 19.2761 24.0858 19.0575L24.5 18.8335ZM3.5 12.4168C4.04211 12.7264 4.62311 12.9967 5.243 13.2277C7.61133 14.1038 10.7088 14.5927 14 14.5927C17.2912 14.5927 20.3887 14.1038 22.757 13.2277C23.3593 13.0058 23.9423 12.7346 24.5 12.4168V16.0393C23.7256 16.6377 22.8649 17.1153 21.9473 17.4557C19.8998 18.214 17.0893 18.6772 14 18.6772C10.9118 18.6772 8.10133 18.214 6.05267 17.4557C5.13509 17.1153 4.27443 16.6377 3.5 16.0393V12.4168ZM14 3.5C16.6997 3.5 19.1987 3.976 21.0677 4.79383C21.9998 5.20217 22.8282 5.71783 23.4383 6.35017C24.0042 6.9335 24.4242 7.66617 24.4907 8.5155L24.5 8.75V9.62267C23.7256 10.2211 22.8649 10.6986 21.9473 11.039C19.8998 11.7973 17.0893 12.2605 14 12.2605C10.9118 12.2605 8.10133 11.7973 6.05267 11.039C5.26399 10.746 4.51687 10.3514 3.83017 9.86533L3.5 9.62267V8.75C3.5 7.80033 3.9445 6.98833 4.56167 6.35017C5.17183 5.71783 6.00017 5.20217 6.93233 4.79383C8.80133 3.97717 11.3003 3.5 14 3.5Z"/>
</svg>
