<svg xmlns="http://www.w3.org/2000/svg" width="48" height="48" viewBox="0 0 48 48" fill="none">
  <path d="M23.5034 44C22.9486 44 22.4611 43.8066 22.0408 43.4197C21.6206 43.036 21.4104 42.53 21.4104 41.9017C21.4104 41.6015 21.4747 41.2688 21.6032 40.9036C21.7317 40.5384 21.9237 40.2251 22.1791 39.9636L30.5306 31.4172L29.2789 30.1359L20.941 38.6823C20.6841 38.9454 20.3946 39.1419 20.0726 39.2719C19.7506 39.4034 19.4233 39.4692 19.0907 39.4692C18.5072 39.4692 18.0121 39.261 17.6054 38.8448C17.1988 38.4285 16.9962 37.9225 16.9977 37.3268C16.9977 36.9693 17.0688 36.6204 17.2109 36.2799C17.3545 35.9395 17.5351 35.6571 17.7528 35.4327L26.1043 26.8863L24.8639 25.6167L16.5147 34.1538C16.288 34.3859 16.006 34.5754 15.6689 34.7225C15.3318 34.8695 14.9932 34.9422 14.6531 34.9406C14.0771 34.9406 13.5843 34.731 13.1746 34.3116C12.7649 33.8923 12.5601 33.3878 12.5601 32.7982C12.5601 32.4578 12.6236 32.1228 12.7506 31.7932C12.8776 31.4636 13.0695 31.1673 13.3265 30.9042L21.1542 22.8917L19.9025 21.6243L12.0884 29.6369C11.8707 29.8597 11.5933 30.0446 11.2562 30.1916C10.9176 30.3371 10.5745 30.4098 10.2268 30.4098C9.613 30.4098 9.11036 30.2094 8.71882 29.8086C8.3288 29.4094 8.13379 28.8956 8.13379 28.2674C8.13379 27.927 8.19728 27.5919 8.32426 27.2623C8.45276 26.9327 8.64475 26.6364 8.90023 26.3734L20.102 14.907L24.9864 19.9206C25.4021 20.3462 25.8715 20.6471 26.3946 20.8235C26.9191 21.0015 27.4497 21.0905 27.9864 21.0905C29.0794 21.0905 29.9924 20.7222 30.7256 19.9856C31.4588 19.249 31.8254 18.3074 31.8254 17.1608C31.8254 16.6192 31.7234 16.073 31.5193 15.5221C31.3152 14.9727 30.997 14.476 30.5646 14.0319L24.5601 7.88557L26.7823 5.61086C27.2812 5.1095 27.8836 4.71723 28.5896 4.43405C29.2955 4.14933 30.0015 4.00696 30.7075 4.00696C31.4588 4.00696 32.192 4.14933 32.907 4.43405C33.6221 4.71723 34.2321 5.11801 34.737 5.6364L44.4513 15.5848C44.9274 16.0737 45.3046 16.6695 45.5828 17.372C45.8609 18.073 46 18.8506 46 19.7048C46 20.4785 45.8587 21.2096 45.576 21.8982C45.2948 22.5868 44.9199 23.171 44.4513 23.6507L25.356 43.2108C25.1111 43.4615 24.8239 43.6549 24.4943 43.7911C24.1678 43.9288 23.8382 43.9977 23.5057 43.9977M6.28571 26.4987L3.93878 24.0963C3.2963 23.448 2.81255 22.6688 2.48753 21.759C2.16251 20.8475 2 19.9578 2 19.0897C2 18.1736 2.14512 17.3418 2.43537 16.5944C2.72562 15.847 3.09599 15.2428 3.54649 14.7816L12.4739 5.63175C12.9622 5.13194 13.5064 4.73502 14.1066 4.44101C14.7037 4.147 15.356 4 16.0635 4C16.8224 4 17.5178 4.13849 18.1497 4.41548C18.7846 4.69092 19.3636 5.09635 19.8866 5.63175L29.3288 15.2946C29.5556 15.5267 29.74 15.8153 29.8821 16.1604C30.0242 16.5055 30.0952 16.8327 30.0952 17.1422C30.0952 17.7612 29.898 18.2811 29.5034 18.702C29.1073 19.1198 28.607 19.3287 28.0023 19.3287C27.6621 19.3287 27.3348 19.2661 27.0204 19.1407C26.7075 19.0138 26.4187 18.815 26.1542 18.5442L20.0907 12.3677L6.28571 26.4987Z" fill="white"/>
</svg>
