<svg xmlns="http://www.w3.org/2000/svg" width="18" height="18" viewBox="0 0 18 18" fill="none">
  <path d="M6.18056 7.79167V10.8125C6.18056 10.987 6.23775 11.1315 6.35214 11.2459C6.46653 11.3603 6.61072 11.4172 6.78472 11.4167C6.95872 11.4161 7.10319 11.3589 7.21811 11.2451C7.33304 11.1312 7.38996 10.987 7.38889 10.8125V7.1875C7.38889 7.01296 7.33169 6.86877 7.21731 6.75492C7.10292 6.64107 6.95872 6.58387 6.78472 6.58333H5.57639C5.40185 6.58333 5.25766 6.64053 5.14381 6.75492C5.02995 6.86931 4.97276 7.0135 4.97222 7.1875C4.97169 7.3615 5.02888 7.50596 5.14381 7.62089C5.25873 7.73582 5.40293 7.79274 5.57639 7.79167H6.18056ZM9.40278 11.4167H11.4167C11.6449 11.4167 11.8364 11.3393 11.991 11.1847C12.1457 11.03 12.2228 10.8388 12.2222 10.6111V7.38889C12.2222 7.16065 12.1449 6.96946 11.9902 6.81533C11.8356 6.6612 11.6444 6.58387 11.4167 6.58333H9.40278C9.17454 6.58333 8.98335 6.66067 8.82922 6.81533C8.67509 6.97 8.59776 7.16119 8.59722 7.38889V10.6111C8.59722 10.8394 8.67456 11.0308 8.82922 11.1855C8.98389 11.3401 9.17508 11.4172 9.40278 11.4167ZM9.80556 10.6111V9.40278H11.0139V10.6111H9.80556ZM9.80556 8.59722V7.38889H11.0139V8.59722H9.80556ZM3.36111 16.25C2.91806 16.25 2.53891 16.0924 2.22367 15.7771C1.90843 15.4619 1.75054 15.0825 1.75 14.6389V3.36111C1.75 2.91806 1.90789 2.53891 2.22367 2.22367C2.53944 1.90843 2.91859 1.75054 3.36111 1.75H14.6389C15.0819 1.75 15.4614 1.90789 15.7771 2.22367C16.0929 2.53944 16.2505 2.91859 16.25 3.36111V14.6389C16.25 15.0819 16.0924 15.4614 15.7771 15.7771C15.4619 16.0929 15.0825 16.2505 14.6389 16.25H3.36111Z" fill="white"/>
</svg>
