<svg xmlns="http://www.w3.org/2000/svg" viewBox="0 0 16 16">
  <path d="M6.30526 1H1.89895C1.41263 1 1 1.39789 1 1.89895V6.30526C1 6.79158 1.39789 7.20421 1.89895 7.20421H6.30526C6.79158 7.20421 7.20421 6.80632 7.20421 6.30526V1.89895C7.20421 1.39789 6.79158 1 6.30526 1Z"/>
  <path d="M14.1011 1H9.69478C9.20847 1 8.79584 1.39789 8.79584 1.89895V6.30526C8.79584 6.79158 9.19373 7.20421 9.69478 7.20421H14.1011C14.5874 7.20421 15 6.80632 15 6.30526V1.89895C15 1.39789 14.6022 1 14.1011 1Z"/>
  <path d="M6.30526 8.79578H1.89895C1.41263 8.79578 1 9.19367 1 9.69472V14.101C1 14.5874 1.39789 15 1.89895 15H6.30526C6.79158 15 7.20421 14.6021 7.20421 14.101V9.69472C7.20421 9.20841 6.79158 8.79578 6.30526 8.79578Z"/>
  <path d="M14.1011 8.79578H9.69478C9.20847 8.79578 8.79584 9.19367 8.79584 9.69472V14.101C8.79584 14.5874 9.19373 15 9.69478 15H14.1011C14.5874 15 15 14.6021 15 14.101V9.69472C15 9.20841 14.6022 8.79578 14.1011 8.79578Z"/>
</svg>
