<svg xmlns="http://www.w3.org/2000/svg" width="92" height="26" viewBox="0 0 92 26" fill="none">
  <path d="M0 0.00423108H8.63106C9.4157 0.00423108 11.7696 -0.266558 12.8158 3.52449C13.6005 5.9616 14.6466 9.75264 16.2159 15.4392H16.739C18.3083 9.48186 19.616 5.42002 20.1391 3.52449C21.1853 -0.266558 23.8008 0.00423108 24.847 0.00423108H32.955V26H24.5854V10.565H24.0624L19.616 26H13.3389L8.89261 10.565H8.10797V26H0M36.3551 0.00423108H44.7246V15.4392H45.5092L51.0017 2.71212C52.0479 0.27502 54.4018 0.00423108 54.4018 0.00423108H62.2483V26H53.8787V10.565H53.3556L47.8632 23.2921C46.817 25.7292 44.2015 26 44.2015 26H36.3551M73.4948 18.1471V26H65.6484V12.4605H91.28C90.2338 15.71 86.5722 18.1471 82.3874 18.1471" fill="#0F754E"/>
  <path d="M91.8027 10.8359C92.8489 5.9617 89.7104 0.0043335 82.9101 0.0043335H65.1249C65.648 5.69091 70.3559 10.8359 75.3253 10.8359" fill="#0999F4"/>
</svg>
