<svg xmlns="http://www.w3.org/2000/svg" width="13" height="13" viewBox="0 0 13 13" fill="none">
  <g clip-path="url(#clip0_209_7424)">
    <path d="M6.5 0.8125C8.00842 0.8125 9.45506 1.41172 10.5217 2.47833C11.5883 3.54494 12.1875 4.99158 12.1875 6.5C12.1875 8.00842 11.5883 9.45506 10.5217 10.5217C9.45506 11.5883 8.00842 12.1875 6.5 12.1875C4.99158 12.1875 3.54494 11.5883 2.47833 10.5217C1.41172 9.45506 0.8125 8.00842 0.8125 6.5C0.8125 4.99158 1.41172 3.54494 2.47833 2.47833C3.54494 1.41172 4.99158 0.8125 6.5 0.8125ZM6.80144 3.2435C6.14006 3.2435 5.62169 3.43119 5.23738 3.80656C4.84413 4.18194 4.65644 4.70031 4.65644 5.36169H5.67531C5.67531 4.98631 5.74681 4.69138 5.89875 4.48581C6.06856 4.23556 6.34562 4.11938 6.73887 4.11938C7.04275 4.11938 7.28406 4.19981 7.45387 4.36962C7.61475 4.53944 7.70413 4.77181 7.70413 5.06675C7.70413 5.29019 7.62369 5.50469 7.46281 5.70131L7.35556 5.82644C6.77463 6.34481 6.42606 6.72019 6.30988 6.9615C6.18475 7.20281 6.13112 7.49775 6.13112 7.83737V7.9625H7.15894V7.83737C7.15894 7.62287 7.20362 7.43519 7.293 7.25644C7.37344 7.09556 7.48963 6.94362 7.6505 6.80956C8.0795 6.43419 8.33869 6.19287 8.41913 6.1035C8.63363 5.8175 8.74981 5.45106 8.74981 5.00419C8.74981 4.459 8.57106 4.03 8.21356 3.71719C7.85606 3.39544 7.38238 3.2435 6.80144 3.2435ZM6.64056 8.40044C6.45833 8.3955 6.28157 8.46299 6.149 8.58812C6.08354 8.64977 6.03211 8.72478 5.99818 8.80805C5.96426 8.89132 5.94864 8.98091 5.95238 9.07075C5.95238 9.26737 6.01494 9.42825 6.149 9.55338C6.28058 9.68108 6.45721 9.75173 6.64056 9.75C6.83719 9.75 6.99806 9.68744 7.13212 9.56231C7.19897 9.49939 7.25181 9.4231 7.28723 9.33841C7.32265 9.25372 7.33984 9.16252 7.33769 9.07075C7.3394 8.98117 7.32285 8.89218 7.28905 8.8092C7.25524 8.72623 7.20489 8.651 7.14106 8.58812C7.00504 8.46277 6.82547 8.39543 6.64056 8.40044Z" fill="#C5C5C5"/>
  </g>
  <defs>
    <clipPath id="clip0_209_7424">
      <rect width="13" height="13" fill="white"/>
    </clipPath>
  </defs>
</svg>
