<svg xmlns="http://www.w3.org/2000/svg" width="12" height="12" viewBox="0 0 12 12" fill="none">
  <path d="M5.99993 6.47995C7.15001 6.47995 8.19593 6.81307 8.96537 7.28251C9.34937 7.51675 9.67769 7.79323 9.91481 8.09371C10.1481 8.38891 10.3199 8.74219 10.3199 9.11995C10.3199 9.52555 10.1227 9.84523 9.83849 10.0732C9.56969 10.2892 9.21497 10.4323 8.83817 10.5321C8.08073 10.7323 7.06985 10.8 5.99993 10.8C4.93001 10.8 3.91913 10.7328 3.16169 10.5321C2.78489 10.4323 2.43017 10.2892 2.16137 10.0732C1.87673 9.84475 1.67993 9.52555 1.67993 9.11995C1.67993 8.74219 1.85177 8.38891 2.08505 8.09323C2.32217 7.79323 2.65001 7.51723 3.03449 7.28203C3.80393 6.81355 4.85033 6.47995 5.99993 6.47995ZM5.99993 1.19995C6.63645 1.19995 7.2469 1.45281 7.69699 1.90289C8.14708 2.35298 8.39993 2.96343 8.39993 3.59995C8.39993 4.23647 8.14708 4.84692 7.69699 5.29701C7.2469 5.7471 6.63645 5.99995 5.99993 5.99995C5.36341 5.99995 4.75296 5.7471 4.30288 5.29701C3.85279 4.84692 3.59993 4.23647 3.59993 3.59995C3.59993 2.96343 3.85279 2.35298 4.30288 1.90289C4.75296 1.45281 5.36341 1.19995 5.99993 1.19995Z" fill="white"/>
</svg>
