<svg xmlns="http://www.w3.org/2000/svg" viewBox="0 0 26 26">
  <path d="M23.804 21.3281C22.4115 18.8842 20.2372 16.98 17.631 15.9219C18.927 14.9499 19.8844 13.5948 20.3674 12.0484C20.8504 10.5021 20.8347 8.84296 20.3224 7.30607C19.8101 5.76917 18.8272 4.43242 17.513 3.48517C16.1988 2.53792 14.6198 2.0282 12.9998 2.0282C11.3797 2.0282 9.80076 2.53792 8.48652 3.48517C7.17229 4.43242 6.1894 5.76917 5.67711 7.30607C5.16481 8.84296 5.14906 10.5021 5.6321 12.0484C6.11514 13.5948 7.07248 14.9499 8.36851 15.9219C5.76233 16.98 3.588 18.8842 2.19554 21.3281C2.10925 21.4669 2.05175 21.6215 2.02643 21.7829C2.00112 21.9443 2.00852 22.1092 2.04819 22.2677C2.08786 22.4262 2.15899 22.5751 2.25736 22.7055C2.35572 22.836 2.47931 22.9453 2.62077 23.027C2.76224 23.1088 2.91869 23.1612 3.08084 23.1813C3.24298 23.2013 3.4075 23.1886 3.56462 23.1438C3.72174 23.099 3.86824 23.0231 3.99543 22.9205C4.12262 22.818 4.22789 22.6909 4.30499 22.5469C6.1453 19.3659 9.3953 17.4687 12.9998 17.4687C16.6042 17.4687 19.8542 19.3669 21.6945 22.5469C21.8616 22.8155 22.1266 23.0087 22.4335 23.0855C22.7404 23.1623 23.0652 23.1168 23.3391 22.9585C23.6131 22.8002 23.8148 22.5416 23.9015 22.2374C23.9882 21.9331 23.9533 21.6071 23.804 21.3281ZM7.7185 9.75C7.7185 8.70546 8.02824 7.68439 8.60856 6.81589C9.18887 5.94739 10.0137 5.27048 10.9787 4.87076C11.9437 4.47103 13.0056 4.36644 14.0301 4.57022C15.0545 4.774 15.9956 5.27699 16.7342 6.01559C17.4728 6.75418 17.9757 7.69521 18.1795 8.71967C18.3833 9.74414 18.2787 10.806 17.879 11.771C17.4793 12.7361 16.8024 13.5609 15.9339 14.1412C15.0654 14.7215 14.0443 15.0312 12.9998 15.0312C11.5996 15.0296 10.2572 14.4727 9.26713 13.4826C8.27705 12.4925 7.72012 11.1502 7.7185 9.75Z"/>
</svg>
