<svg xmlns="http://www.w3.org/2000/svg" viewBox="0 0 26 26">
  <path fill-rule="evenodd" clip-rule="evenodd" d="M25.0475 4.86065C25.0999 4.54574 25.0661 4.22266 24.9496 3.9251C24.8331 3.62753 24.6381 3.36636 24.3851 3.16879C24.132 2.97123 23.8301 2.8445 23.5108 2.80181C23.1915 2.75911 22.8665 2.80202 22.5696 2.92606L2.03011 11.4925C0.598358 12.0898 0.525089 14.141 2.03011 14.7596C3.52059 15.3748 5.03257 15.9375 6.56321 16.4468C7.96614 16.906 9.49639 17.3308 10.7228 17.4509C11.0579 17.8483 11.4795 18.2314 11.9095 18.5812C12.5665 19.1166 13.3568 19.6675 14.1736 20.1958C15.8096 21.2547 17.6245 22.2672 18.8472 22.9263C20.309 23.7116 22.0591 22.8073 22.3209 21.2285L25.0475 4.86065ZM4.3327 13.1142L22.4987 5.53764L19.9547 20.8144C18.7548 20.1684 17.0263 19.2011 15.4865 18.2041C14.7768 17.7527 14.0916 17.2646 13.4337 16.7418C13.2579 16.5995 13.0872 16.4511 12.922 16.2968L17.6797 11.5853C17.9051 11.3622 18.0318 11.0596 18.0319 10.744C18.032 10.4283 17.9056 10.1256 17.6803 9.90236C17.4551 9.6791 17.1496 9.55362 16.831 9.55351C16.5123 9.5534 16.2067 9.67867 15.9813 9.90176L10.772 15.0618C9.89036 14.95 8.6628 14.6264 7.31512 14.1862C6.31183 13.855 5.31773 13.4972 4.3339 13.113L4.3327 13.1142Z"/>
</svg>
