<svg xmlns="http://www.w3.org/2000/svg" width="28" height="28" viewBox="0 0 28 28" fill="none">
  <path d="M16.1875 21.875C16.1875 22.3076 16.0592 22.7306 15.8188 23.0903C15.5785 23.45 15.2368 23.7304 14.8371 23.896C14.4374 24.0616 13.9976 24.1049 13.5732 24.0205C13.1489 23.9361 12.7591 23.7277 12.4532 23.4218C12.1473 23.1159 11.9389 22.7261 11.8545 22.3018C11.7701 21.8774 11.8134 21.4376 11.979 21.0379C12.1446 20.6382 12.425 20.2965 12.7847 20.0562C13.1444 19.8158 13.5674 19.6875 14 19.6875C14.5802 19.6875 15.1366 19.918 15.5468 20.3282C15.957 20.7384 16.1875 21.2948 16.1875 21.875ZM14 17.5C14.3481 17.5 14.6819 17.3617 14.9281 17.1156C15.1742 16.8694 15.3125 16.5356 15.3125 16.1875V5.25C15.3125 4.9019 15.1742 4.56806 14.9281 4.32192C14.6819 4.07578 14.3481 3.9375 14 3.9375C13.6519 3.9375 13.3181 4.07578 13.0719 4.32192C12.8258 4.56806 12.6875 4.9019 12.6875 5.25V16.1875C12.6875 16.5356 12.8258 16.8694 13.0719 17.1156C13.3181 17.3617 13.6519 17.5 14 17.5Z" fill="#D74747"/>
  <path d="M16.1875 21.875C16.1875 22.3076 16.0592 22.7306 15.8188 23.0903C15.5785 23.45 15.2368 23.7304 14.8371 23.896C14.4374 24.0616 13.9976 24.1049 13.5732 24.0205C13.1489 23.9361 12.7591 23.7277 12.4532 23.4218C12.1473 23.1159 11.9389 22.7261 11.8545 22.3018C11.7701 21.8774 11.8134 21.4376 11.979 21.0379C12.1446 20.6382 12.425 20.2965 12.7847 20.0562C13.1444 19.8158 13.5674 19.6875 14 19.6875C14.5802 19.6875 15.1366 19.918 15.5468 20.3282C15.957 20.7384 16.1875 21.2948 16.1875 21.875ZM14 17.5C14.3481 17.5 14.6819 17.3617 14.9281 17.1156C15.1742 16.8694 15.3125 16.5356 15.3125 16.1875V5.25C15.3125 4.9019 15.1742 4.56806 14.9281 4.32192C14.6819 4.07578 14.3481 3.9375 14 3.9375C13.6519 3.9375 13.3181 4.07578 13.0719 4.32192C12.8258 4.56806 12.6875 4.9019 12.6875 5.25V16.1875C12.6875 16.5356 12.8258 16.8694 13.0719 17.1156C13.3181 17.3617 13.6519 17.5 14 17.5Z" fill="#403836"/>
</svg>
