<svg width="54" height="18" viewBox="0 0 54 18" fill="none" xmlns="http://www.w3.org/2000/svg">
<g clip-path="url(#clip0_203_4819)">
<path d="M35.1646 0.02771C31.3344 0.02771 27.9113 2.06621 27.9113 5.83164C27.9113 10.1504 33.982 10.4486 33.982 12.6185C33.982 13.5321 32.9625 14.3499 31.2204 14.3499C28.7489 14.3499 26.9015 13.2073 26.9015 13.2073L26.111 17.0076C26.111 17.0076 28.2391 17.9728 31.0644 17.9728C35.2521 17.9728 38.5477 15.8345 38.5477 12.0042C38.5477 7.44049 32.4516 7.15109 32.4516 5.13754C32.4516 4.42182 33.2886 3.63791 35.0253 3.63791C36.9849 3.63791 38.5833 4.46894 38.5833 4.46894L39.3572 0.798869C39.3572 0.798869 37.6173 0.02771 35.1641 0.02771H35.1646ZM0.120224 0.304906L0.0273438 0.858743C0.0273438 0.858743 1.6387 1.16144 3.09022 1.76573C4.95916 2.45816 5.092 2.86176 5.40682 4.11358L8.83636 17.6868H13.4339L20.5166 0.304906H15.9298L11.3787 12.1229L9.52162 2.10502C9.35152 0.958534 8.4886 0.304352 7.4329 0.304352H0.120764L0.120224 0.304906ZM22.3612 0.304906L18.7632 17.6868H23.1372L26.7222 0.304906H22.3612ZM46.7562 0.304906C45.7016 0.304906 45.1427 0.8848 44.7329 1.89767L38.3247 17.6868H42.9114L43.7987 15.0551H49.3866L49.926 17.6868H53.9733L50.4428 0.304906H46.7562ZM47.3529 5.00116L48.7127 11.5236H45.0704L47.3535 5.00116H47.3529Z" fill="#C5C5C5"/>
</g>
<defs>
<clipPath id="clip0_203_4819">
<rect width="54" height="18" fill="white"/>
</clipPath>
</defs>
</svg>
