<svg xmlns="http://www.w3.org/2000/svg" width="48" height="48" viewBox="0 0 48 48" fill="none">
  <path fill-rule="evenodd" clip-rule="evenodd" d="M6.23711 4.2306C5 5.4612 5 7.4394 5 11.4V32.4C5 38.3388 5 41.3103 6.85567 43.1541C8.20889 44.5023 10.1659 44.8656 13.4444 44.9643V38.7C13.4444 38.143 13.6669 37.6089 14.0628 37.2151C14.4587 36.8212 14.9957 36.6 15.5556 36.6C16.1155 36.6 16.6524 36.8212 17.0483 37.2151C17.4442 37.6089 17.6667 38.143 17.6667 38.7V45H30.3333V38.7C30.3333 38.143 30.5558 37.6089 30.9517 37.2151C31.3476 36.8212 31.8845 36.6 32.4444 36.6C33.0043 36.6 33.5413 36.8212 33.9372 37.2151C34.3331 37.6089 34.5556 38.143 34.5556 38.7V44.9643C37.8341 44.8656 39.7911 44.5023 41.1443 43.1541C43 41.3103 43 38.3388 43 32.4V11.4C43 7.4394 43 5.4612 41.7629 4.2306C40.5258 3 38.5371 3 34.5556 3H13.4444C9.46289 3 7.47422 3 6.23711 4.2306ZM15.5556 15.6C14.9957 15.6 14.4587 15.8212 14.0628 16.2151C13.6669 16.6089 13.4444 17.143 13.4444 17.7C13.4444 18.257 13.6669 18.7911 14.0628 19.1849C14.4587 19.5787 14.9957 19.8 15.5556 19.8H32.4444C33.0043 19.8 33.5413 19.5787 33.9372 19.1849C34.3331 18.7911 34.5556 18.257 34.5556 17.7C34.5556 17.143 34.3331 16.6089 33.9372 16.2151C33.5413 15.8212 33.0043 15.6 32.4444 15.6H15.5556ZM15.5556 28.2H32.4444C33.0043 28.2 33.5413 27.9787 33.9372 27.5849C34.3331 27.1911 34.5556 26.657 34.5556 26.1C34.5556 25.543 34.3331 25.0089 33.9372 24.6151C33.5413 24.2212 33.0043 24 32.4444 24H15.5556C14.9957 24 14.4587 24.2212 14.0628 24.6151C13.6669 25.0089 13.4444 25.543 13.4444 26.1C13.4444 26.657 13.6669 27.1911 14.0628 27.5849C14.4587 27.9787 14.9957 28.2 15.5556 28.2Z" fill="white"/>
</svg>
