<svg xmlns="http://www.w3.org/2000/svg" width="18" height="18" viewBox="0 0 18 18" fill="none">
  <path fill-rule="evenodd" clip-rule="evenodd" d="M11.5578 12.3208C11.5547 12.3164 11.5622 12.3269 11.5578 12.3208C11.5463 12.3051 11.5345 12.2897 11.5225 12.2744C11.4836 12.2255 11.4426 12.1782 11.3996 12.1328C11.2939 12.0206 11.1384 11.8768 10.9284 11.7345C10.5045 11.4473 9.86839 11.1739 9.00019 11.1739C8.13198 11.1739 7.49587 11.4473 7.07193 11.7345C6.86201 11.8768 6.70651 12.0206 6.6008 12.1328C6.55782 12.1782 6.51681 12.2255 6.47791 12.2744C6.4633 12.2929 6.48687 12.2622 6.47791 12.2744L6.42403 12.3472C6.35246 12.4531 6.3205 12.5808 6.33376 12.7079C6.34702 12.835 6.40466 12.9534 6.49655 13.0423L8.62244 15.0973C8.8331 15.3009 9.16724 15.3009 9.37791 15.0973L11.5038 13.0423C11.5957 12.9534 11.6534 12.8351 11.6666 12.7079C11.6799 12.5808 11.6479 12.4531 11.5764 12.3472L11.5578 12.3208Z" fill="white"/>
  <path fill-rule="evenodd" clip-rule="evenodd" d="M14.607 9.47087C14.6025 9.46347 14.5868 9.43806 14.5795 9.42671C14.5596 9.39638 14.5391 9.3665 14.518 9.33707C14.4653 9.2636 14.3885 9.16398 14.2849 9.04713C14.0778 8.81343 13.7631 8.51038 13.3197 8.21027C12.4273 7.6063 11.0364 7.02991 8.9995 7.02991C6.96258 7.02991 5.57168 7.6063 4.67933 8.21027C4.23588 8.51038 3.92124 8.81343 3.71408 9.04713C3.61051 9.16398 3.53371 9.2636 3.48103 9.33707C3.45986 9.36649 3.43936 9.39638 3.41954 9.42671C3.41221 9.43808 3.40624 9.44747 3.40164 9.45487L3.39196 9.47087C3.32974 9.5762 3.30487 9.69943 3.32138 9.82065C3.33789 9.94186 3.3948 10.054 3.48293 10.1388L4.68232 11.2937C4.73489 11.3443 4.79712 11.3838 4.86529 11.4099C4.93346 11.4359 5.00618 11.448 5.07912 11.4453C5.15205 11.4427 5.2237 11.4253 5.28979 11.3944C5.35588 11.3634 5.41506 11.3195 5.4638 11.2652L5.47043 11.2581C5.47746 11.2506 5.48962 11.238 5.50691 11.2208C5.55982 11.1687 5.61455 11.1184 5.67101 11.0702C5.82053 10.9416 6.04781 10.7663 6.34882 10.5898C6.94984 10.2377 7.84098 9.88317 8.9995 9.88317C10.158 9.88317 11.0492 10.2377 11.6502 10.5898C11.9512 10.7663 12.1785 10.9416 12.328 11.0702C12.3845 11.1184 12.4392 11.1687 12.4921 11.2208C12.5067 11.2353 12.5211 11.2501 12.5352 11.2652L12.535 11.265L12.5346 11.2645M12.5346 11.2645L12.5355 11.2654C12.5842 11.3197 12.6434 11.3636 12.7095 11.3945C12.7756 11.4254 12.8472 11.4427 12.9201 11.4453C12.993 11.448 13.0657 11.4359 13.1338 11.4098C13.2019 11.3838 13.2641 11.3443 13.3167 11.2937L14.5161 10.1388C14.6042 10.054 14.6611 9.94186 14.6776 9.82065C14.6941 9.69943 14.6693 9.5762 14.607 9.47087" fill="white"/>
  <path d="M17.5593 6.46141C17.5709 6.477 17.5994 6.51675 17.5994 6.51675C17.6727 6.62266 17.706 6.75117 17.6934 6.87936C17.6808 7.00756 17.623 7.1271 17.5305 7.21668L16.2842 8.42252C16.2307 8.47428 16.1671 8.5145 16.0974 8.54069C16.0278 8.56687 15.9534 8.57846 15.8791 8.57473C15.8047 8.57101 15.7319 8.55205 15.6652 8.51903C15.5985 8.48601 15.5393 8.43963 15.4912 8.38278L15.4911 8.38268L15.4882 8.37931C15.4851 8.37569 15.4797 8.36949 15.4719 8.3607C15.4474 8.33339 15.4225 8.30645 15.3972 8.27989C15.329 8.20802 15.2242 8.10228 15.0838 7.97385C14.8027 7.71675 14.381 7.37045 13.8271 7.0234C12.7198 6.32962 11.0921 5.63723 9.00036 5.63723C6.90865 5.63723 5.28097 6.32962 4.17367 7.0234C3.61976 7.37045 3.19805 7.71675 2.91697 7.97385C2.77659 8.10228 2.67173 8.20802 2.60349 8.27989C2.57821 8.30646 2.55334 8.3334 2.52886 8.3607C2.52105 8.36949 2.51559 8.37569 2.51249 8.37931L2.51089 8.38115L2.50987 8.3823L2.50974 8.38251L2.5096 8.38268L2.50947 8.38281C2.46141 8.43966 2.40218 8.48603 2.33547 8.51904C2.26875 8.55205 2.19596 8.57101 2.12162 8.57473C2.04727 8.57845 1.97295 8.56687 1.90327 8.54068C1.83359 8.5145 1.77003 8.47428 1.71653 8.42252L0.470268 7.21668C0.37769 7.12711 0.319936 7.00757 0.307307 6.87937C0.294677 6.75117 0.327994 6.62266 0.401315 6.51675L0.401688 6.5162L0.40213 6.51563L0.403149 6.51416L0.405832 6.51033L0.413984 6.49888C0.420665 6.48953 0.429825 6.47704 0.441464 6.46141C0.464766 6.43016 0.498088 6.38672 0.541634 6.33281C0.628692 6.225 0.756817 6.07517 0.927741 5.89742C1.26935 5.54212 1.78321 5.07402 2.48287 4.60757C3.88613 3.67208 6.02754 2.75 9.00036 2.75C11.9732 2.75 14.1146 3.67208 15.5179 4.60757C16.2175 5.07402 16.7314 5.54212 17.073 5.89742C17.2439 6.07517 17.372 6.225 17.4591 6.33281C17.4933 6.37503 17.5267 6.41791 17.5593 6.46141Z" fill="white"/>
</svg>
