<svg xmlns="http://www.w3.org/2000/svg" width="28" height="28" viewBox="0 0 28 28" fill="none">
  <path d="M25.0535 1.99859C23.9443 0.889306 22.1512 0.889306 21.0419 1.99859L19.5173 3.51815L24.4761 8.47699L26.0007 6.95236C27.11 5.84308 27.11 4.04999 26.0007 2.94071L25.0535 1.99859ZM9.89843 13.142C9.58945 13.451 9.35139 13.8309 9.21463 14.2513L7.71533 18.7492C7.56844 19.1848 7.68494 19.666 8.00911 19.9953C8.33328 20.3245 8.81448 20.4359 9.25515 20.289L13.7531 18.7897C14.1684 18.653 14.5483 18.4149 14.8623 18.1059L23.3364 9.62679L18.3725 4.66288L9.89843 13.142ZM6.02861 4.14117C3.34405 4.14117 1.16602 6.31921 1.16602 9.00377V21.9707C1.16602 24.6553 3.34405 26.8333 6.02861 26.8333H18.9955C21.6801 26.8333 23.8581 24.6553 23.8581 21.9707V17.1081C23.8581 16.2116 23.1338 15.4872 22.2373 15.4872C21.3407 15.4872 20.6164 16.2116 20.6164 17.1081V21.9707C20.6164 22.8672 19.8921 23.5916 18.9955 23.5916H6.02861C5.13207 23.5916 4.40775 22.8672 4.40775 21.9707V9.00377C4.40775 8.10722 5.13207 7.3829 6.02861 7.3829H10.8912C11.7878 7.3829 12.5121 6.65858 12.5121 5.76203C12.5121 4.86549 11.7878 4.14117 10.8912 4.14117H6.02861Z" fill="white"/>
</svg>
