<svg xmlns="http://www.w3.org/2000/svg" width="24" height="24" viewBox="0 0 24 24" fill="none">
  <path d="M7.99728 8.5625H9.65511C9.7183 7.40105 9.93248 6.35605 10.2578 5.53707C9.08257 6.10598 8.2212 7.22102 7.99728 8.5625ZM7.99728 9.9375C8.22163 11.279 9.08257 12.394 10.2578 12.9629C9.93205 12.1439 9.7183 11.0989 9.65511 9.9375H7.99728ZM12 13.3187C12.3261 12.9986 12.8809 11.8397 12.9937 9.9375H11.0059C11.1191 11.8393 11.6739 12.9986 12 13.3187ZM11.0063 8.5625H12.9941C12.8813 6.6607 12.3266 5.50141 12.0004 5.18129C11.6739 5.50141 11.1191 6.6607 11.0063 8.5625ZM13.7422 12.9629C14.9174 12.394 15.7788 11.279 16.0027 9.9375H14.3449C14.2817 11.0989 14.0679 12.1439 13.7422 12.9629ZM20.1429 1H5.21429C3.71507 1 2.5 2.23105 2.5 3.75V20.25C2.5 21.7689 3.71507 23 5.21429 23H20.1429C20.8923 23 21.5 22.3843 21.5 21.625V2.375C21.5 1.61574 20.8923 1 20.1429 1ZM16.75 18.875H7.25C6.87679 18.875 6.57143 18.5656 6.57143 18.1875C6.57143 17.8094 6.87679 17.5 7.25 17.5H16.75C17.1232 17.5 17.4286 17.8094 17.4286 18.1875C17.4286 18.5656 17.1232 18.875 16.75 18.875ZM12 14.75C9.00199 14.75 6.57143 12.2875 6.57143 9.25C6.57143 6.21254 9.00199 3.75 12 3.75C14.998 3.75 17.4286 6.21254 17.4286 9.25C17.4286 12.2875 14.998 14.75 12 14.75ZM13.7422 5.53707C14.0679 6.35605 14.2817 7.40105 14.3449 8.5625H16.0027C15.7788 7.22102 14.9174 6.10598 13.7422 5.53707Z" fill="white"/>
</svg>
