<svg xmlns="http://www.w3.org/2000/svg" width="18" height="18" viewBox="0 0 18 18" fill="none">
  <path fill-rule="evenodd" clip-rule="evenodd" d="M10.7419 1.69231C10.7419 1.6413 10.7215 1.59239 10.6852 1.55633C10.6489 1.52026 10.5997 1.5 10.5484 1.5H5.12903C4.56438 1.5 4.02285 1.72287 3.62358 2.11958C3.22431 2.51629 3 3.05435 3 3.61538V14.3846C3 14.9457 3.22431 15.4837 3.62358 15.8804C4.02285 16.2771 4.56438 16.5 5.12903 16.5H12.871C13.4356 16.5 13.9771 16.2771 14.3764 15.8804C14.7757 15.4837 15 14.9457 15 14.3846V6.80539C15 6.75438 14.9796 6.70547 14.9433 6.6694C14.907 6.63334 14.8578 6.61308 14.8065 6.61308H11.3226C11.1686 6.61308 11.0209 6.55229 10.912 6.4441C10.8031 6.33591 10.7419 6.18916 10.7419 6.03615V1.69231ZM11.3226 9.19231C11.4766 9.19231 11.6243 9.25309 11.7332 9.36129C11.8421 9.46948 11.9032 9.61622 11.9032 9.76923C11.9032 9.92224 11.8421 10.069 11.7332 10.1772C11.6243 10.2854 11.4766 10.3462 11.3226 10.3462H6.67742C6.52342 10.3462 6.37573 10.2854 6.26684 10.1772C6.15795 10.069 6.09677 9.92224 6.09677 9.76923C6.09677 9.61622 6.15795 9.46948 6.26684 9.36129C6.37573 9.25309 6.52342 9.19231 6.67742 9.19231H11.3226ZM11.3226 12.2692C11.4766 12.2692 11.6243 12.33 11.7332 12.4382C11.8421 12.5464 11.9032 12.6931 11.9032 12.8462C11.9032 12.9992 11.8421 13.1459 11.7332 13.2541C11.6243 13.3623 11.4766 13.4231 11.3226 13.4231H6.67742C6.52342 13.4231 6.37573 13.3623 6.26684 13.2541C6.15795 13.1459 6.09677 12.9992 6.09677 12.8462C6.09677 12.6931 6.15795 12.5464 6.26684 12.4382C6.37573 12.33 6.52342 12.2692 6.67742 12.2692H11.3226Z" fill="white"/>
  <path d="M12 1.68082C12 1.53721 12.1566 1.44589 12.2726 1.53565C12.371 1.61213 12.4584 1.70111 12.5346 1.80257L14.9789 5.07829C15.0341 5.15322 14.9741 5.25 14.8783 5.25H12.2028C12.149 5.25 12.0974 5.22944 12.0594 5.19285C12.0214 5.15626 12 5.10663 12 5.05488V1.68082Z" fill="white"/>
</svg>
