<svg width="32" height="32" viewBox="0 0 32 32" fill="none" xmlns="http://www.w3.org/2000/svg">
<path d="M29.3334 13.3333V22.6666C29.3334 23.7275 28.912 24.7449 28.1618 25.4951C27.4117 26.2452 26.3943 26.6666 25.3334 26.6666H6.66675C5.60588 26.6666 4.58847 26.2452 3.83832 25.4951C3.08818 24.7449 2.66675 23.7275 2.66675 22.6666V13.3333H29.3334ZM24.0001 18.6666H20.0001C19.6465 18.6666 19.3073 18.8071 19.0573 19.0572C18.8072 19.3072 18.6667 19.6464 18.6667 20C18.6667 20.3536 18.8072 20.6927 19.0573 20.9428C19.3073 21.1928 19.6465 21.3333 20.0001 21.3333H24.0001C24.3537 21.3333 24.6928 21.1928 24.9429 20.9428C25.1929 20.6927 25.3334 20.3536 25.3334 20C25.3334 19.6464 25.1929 19.3072 24.9429 19.0572C24.6928 18.8071 24.3537 18.6666 24.0001 18.6666ZM25.3334 5.33331C26.3943 5.33331 27.4117 5.75474 28.1618 6.50489C28.912 7.25503 29.3334 8.27245 29.3334 9.33331V10.6666H2.66675V9.33331C2.66675 8.27245 3.08818 7.25503 3.83832 6.50489C4.58847 5.75474 5.60588 5.33331 6.66675 5.33331H25.3334Z" fill="white"/>
</svg>
