<svg xmlns="http://www.w3.org/2000/svg" width="18" height="18" viewBox="0 0 18 18" fill="none">
  <path d="M16.9184 12.2255L11.1659 2.6855C10.9333 2.32161 10.6128 2.02215 10.234 1.81471C9.85518 1.60727 9.43025 1.49854 8.99836 1.49854C8.56648 1.49854 8.14155 1.60727 7.76275 1.81471C7.38395 2.02215 7.06347 2.32161 6.83086 2.6855L1.07837 12.2255C0.875156 12.5642 0.764708 12.9505 0.758125 13.3455C0.751542 13.7404 0.849057 14.1302 1.04087 14.4755C1.26263 14.8642 1.58361 15.1871 1.97102 15.4111C2.35842 15.6351 2.79836 15.7522 3.24587 15.7505H14.7509C15.1954 15.7552 15.6334 15.6426 16.0205 15.4241C16.4077 15.2055 16.7303 14.8886 16.9559 14.5055C17.1533 14.1566 17.2539 13.7613 17.2473 13.3604C17.2407 12.9595 17.1272 12.5677 16.9184 12.2255ZM15.6434 13.763C15.5532 13.9179 15.4224 14.0453 15.2651 14.1312C15.1078 14.2171 14.9299 14.2584 14.7509 14.2505H3.24587C3.06678 14.2584 2.88895 14.2171 2.73163 14.1312C2.57432 14.0453 2.4435 13.9179 2.35337 13.763C2.28754 13.649 2.25288 13.5197 2.25288 13.388C2.25288 13.2564 2.28754 13.127 2.35337 13.013L8.11336 3.4655C8.21687 3.32878 8.35064 3.2179 8.50419 3.14156C8.65774 3.06521 8.82689 3.02548 8.99836 3.02548C9.16984 3.02548 9.33899 3.06521 9.49254 3.14156C9.64609 3.2179 9.77986 3.32878 9.88336 3.4655L15.6359 13.0055C15.7042 13.1197 15.741 13.2501 15.7423 13.3832C15.7436 13.5164 15.7095 13.6474 15.6434 13.763Z" fill="#D74747"/>
  <path d="M9 12.75C9.41421 12.75 9.75 12.4142 9.75 12C9.75 11.5858 9.41421 11.25 9 11.25C8.58579 11.25 8.25 11.5858 8.25 12C8.25 12.4142 8.58579 12.75 9 12.75Z" fill="#D74747"/>
  <path d="M9 6C8.80109 6 8.61032 6.07902 8.46967 6.21967C8.32902 6.36032 8.25 6.55109 8.25 6.75V9.75C8.25 9.94891 8.32902 10.1397 8.46967 10.2803C8.61032 10.421 8.80109 10.5 9 10.5C9.19891 10.5 9.38968 10.421 9.53033 10.2803C9.67098 10.1397 9.75 9.94891 9.75 9.75V6.75C9.75 6.55109 9.67098 6.36032 9.53033 6.21967C9.38968 6.07902 9.19891 6 9 6Z" fill="#D74747"/>
</svg>
