<svg xmlns="http://www.w3.org/2000/svg" width="48" height="48" viewBox="0 0 48 48" fill="none">
  <path d="M37.5 14.1825V7.5C37.5 6.70435 37.1839 5.94129 36.6213 5.37868C36.0587 4.81607 35.2956 4.5 34.5 4.5H13.5C12.7044 4.5 11.9413 4.81607 11.3787 5.37868C10.8161 5.94129 10.5 6.70435 10.5 7.5V14.25C10.5014 14.7157 10.6106 15.1747 10.8191 15.5911C11.0277 16.0075 11.3298 16.37 11.7019 16.65L21.5006 24L11.7 31.35C11.3282 31.6301 11.0263 31.9926 10.8181 32.409C10.6099 32.8255 10.501 33.2844 10.5 33.75V40.5C10.5 41.2957 10.8161 42.0587 11.3787 42.6213C11.9413 43.1839 12.7044 43.5 13.5 43.5H34.5C35.2956 43.5 36.0587 43.1839 36.6213 42.6213C37.1839 42.0587 37.5 41.2957 37.5 40.5V33.8175C37.5 33.3533 37.3923 32.8955 37.1854 32.48C36.9785 32.0646 36.6779 31.7028 36.3075 31.4231L26.4862 24L36.3075 16.5769C36.6774 16.2967 36.9775 15.9348 37.1844 15.5195C37.3913 15.1041 37.4993 14.6465 37.5 14.1825Z" fill="white"/>
</svg>
