<svg xmlns="http://www.w3.org/2000/svg" width="10" height="10" viewBox="0 0 10 10" fill="none">
  <g clip-path="url(#clip0_62_1097)">
    <path d="M9.53972 7.32178C9.45867 7.9377 9.15618 8.50307 8.68875 8.91228C8.22132 9.32148 7.62091 9.54655 6.99967 9.54543C3.39052 9.54543 0.454106 6.60904 0.454106 2.99992C0.452992 2.37868 0.678058 1.77828 1.08727 1.31085C1.49648 0.843426 2.06185 0.540941 2.67778 0.459891C2.83353 0.440873 2.99126 0.472738 3.12742 0.550728C3.26357 0.628718 3.37086 0.748651 3.43325 0.892623L4.39326 3.03583V3.04128C4.44103 3.15149 4.46076 3.27181 4.45069 3.3915C4.44061 3.51119 4.40105 3.62652 4.33554 3.7272C4.32735 3.73947 4.31872 3.75083 4.30963 3.7622L3.36325 4.88403C3.70371 5.57585 4.42736 6.29313 5.12828 6.6345L6.23466 5.69312C6.24552 5.68398 6.2569 5.67548 6.26875 5.66767C6.36934 5.60058 6.48507 5.55963 6.60547 5.54851C6.72587 5.5374 6.84714 5.55648 6.95831 5.60403L6.96422 5.60676L9.10562 6.56631C9.24984 6.62848 9.37007 6.73567 9.44832 6.87184C9.52657 7.00802 9.55863 7.16586 9.53972 7.32178Z" fill="white"/>
  </g>
  <defs>
    <clipPath id="clip0_62_1097">
      <rect width="9.09091" height="9.09091" fill="white" transform="translate(0.454102 0.454529)"/>
    </clipPath>
  </defs>
</svg>
