<svg xmlns="http://www.w3.org/2000/svg" width="14" height="14" viewBox="0 0 14 14" fill="none">
  <path d="M6.68256 10.2621L10.5981 6.34657C9.93939 6.07139 9.34114 5.66955 8.83727 5.16386C8.33133 4.65989 7.92931 4.06144 7.65403 3.40251L3.73851 7.31804C3.43303 7.62351 3.28003 7.77651 3.14874 7.94486C2.99383 8.14364 2.86088 8.3586 2.75221 8.58598C2.66062 8.77868 2.59233 8.9841 2.45574 9.39386L1.73468 11.5554C1.70149 11.6544 1.69657 11.7607 1.72046 11.8623C1.74436 11.9639 1.79612 12.0569 1.86993 12.1307C1.94374 12.2045 2.03668 12.2562 2.1383 12.2801C2.23991 12.304 2.34618 12.2991 2.44515 12.2659L4.60674 11.5449C5.01703 11.4083 5.22192 11.34 5.41462 11.2484C5.64298 11.1397 5.85668 11.0075 6.05574 10.8519C6.22409 10.7206 6.37709 10.5676 6.68256 10.2621ZM11.6844 5.26021C12.0749 4.86981 12.2942 4.3403 12.2942 3.78818C12.2942 3.23607 12.0749 2.70656 11.6844 2.31616C11.294 1.92575 10.7645 1.70642 10.2124 1.70642C9.6603 1.70642 9.13079 1.92575 8.74039 2.31616L8.2708 2.78574L8.29092 2.84451C8.52226 3.50669 8.90096 4.10768 9.39845 4.60216C9.90771 5.11453 10.5297 5.5007 11.2149 5.7298L11.6844 5.26021Z" fill="#759C5C"/>
</svg>
