<svg xmlns="http://www.w3.org/2000/svg" width="24" height="24" viewBox="0 0 24 24" fill="none">
  <path d="M21.4117 4.5461C21.7738 4.91044 21.9851 5.41291 21.9992 5.94303C22.0133 6.47316 21.829 6.98755 21.4869 7.37309L10.8367 19.3745C10.664 19.5686 10.4566 19.724 10.2266 19.8314C9.99665 19.9388 9.74878 19.9961 9.49765 19.9998C9.24652 20.0035 8.99724 19.9537 8.76453 19.8531C8.53182 19.7526 8.32041 19.6034 8.14278 19.4145L2.50442 13.4138C2.17244 13.0346 1.9917 12.5331 2.00029 12.0149C2.00888 11.4967 2.20613 11.0023 2.55048 10.6358C2.89483 10.2693 3.35939 10.0594 3.84629 10.0503C4.3332 10.0411 4.80443 10.2335 5.16071 10.5868L9.43333 15.1313L18.7554 4.62611C19.0977 4.24073 19.5699 4.01581 20.068 4.0008C20.5661 3.9858 21.0494 4.18194 21.4117 4.5461Z" fill="white"/>
</svg>
