<svg xmlns="http://www.w3.org/2000/svg" width="18" height="18" viewBox="0 0 18 18" fill="none">
  <g clip-path="url(#clip0_62_1157)">
    <path d="M9.00082 6.75002C8.40409 6.75002 7.83179 6.98708 7.40983 7.40903C6.98788 7.83099 6.75082 8.40329 6.75082 9.00002C6.75082 9.59676 6.98788 10.1691 7.40983 10.591C7.83179 11.013 8.40409 11.25 9.00082 11.25C9.59756 11.25 10.1699 11.013 10.5918 10.591C11.0138 10.1691 11.2508 9.59676 11.2508 9.00002C11.2508 8.40329 11.0138 7.83099 10.5918 7.40903C10.1699 6.98708 9.59756 6.75002 9.00082 6.75002Z" fill="white"/>
    <path d="M2.25082 3.6585C2.25079 3.26322 2.38952 2.88046 2.64281 2.577C2.89611 2.27354 3.2479 2.06862 3.63682 1.998L12.6368 0.362251C12.8799 0.31811 13.1297 0.327882 13.3686 0.390878C13.6075 0.453874 13.8296 0.568557 14.0194 0.726826C14.2091 0.885094 14.3617 1.08309 14.4665 1.30682C14.5713 1.53055 14.6257 1.77457 14.6258 2.02163V2.55038C14.968 2.74795 15.2522 3.03215 15.4496 3.3744C15.6471 3.71664 15.751 4.10486 15.7508 4.5V15.75C15.7508 16.3467 15.5138 16.919 15.0918 17.341C14.6699 17.7629 14.0976 18 13.5008 18H4.50082C4.17877 18.0001 3.86046 17.931 3.56739 17.7975C3.27433 17.664 3.01334 17.4691 2.80207 17.226C2.62829 17.0677 2.48948 16.8749 2.39455 16.6599C2.29962 16.4448 2.25067 16.2123 2.25082 15.9773V3.6585ZM5.62582 9C5.62582 9.89511 5.9814 10.7536 6.61434 11.3865C7.24727 12.0194 8.10572 12.375 9.00083 12.375C9.89593 12.375 10.7544 12.0194 11.3873 11.3865C12.0202 10.7536 12.3758 9.89511 12.3758 9C12.3758 8.1049 12.0202 7.24645 11.3873 6.61352C10.7544 5.98058 9.89593 5.625 9.00083 5.625C8.10572 5.625 7.24727 5.98058 6.61434 6.61352C5.9814 7.24645 5.62582 8.1049 5.62582 9ZM5.62582 14.0625C5.62582 14.2117 5.68509 14.3548 5.79058 14.4602C5.89607 14.5657 6.03914 14.625 6.18832 14.625H11.8133C11.9625 14.625 12.1056 14.5657 12.2111 14.4602C12.3166 14.3548 12.3758 14.2117 12.3758 14.0625C12.3758 13.9133 12.3166 13.7702 12.2111 13.6648C12.1056 13.5593 11.9625 13.5 11.8133 13.5H6.18832C6.03914 13.5 5.89607 13.5593 5.79058 13.6648C5.68509 13.7702 5.62582 13.9133 5.62582 14.0625Z" fill="white"/>
  </g>
  <defs>
    <clipPath id="clip0_62_1157">
      <rect width="18" height="18" fill="white"/>
    </clipPath>
  </defs>
</svg>
