<svg width="68" height="18" viewBox="0 0 68 18" fill="none" xmlns="http://www.w3.org/2000/svg">
<g clip-path="url(#clip0_203_4811)">
<path d="M0 -5.97364e-05H6.375C6.95455 -5.97364e-05 8.69318 -0.191549 9.46591 2.4893C10.0455 4.21271 10.8182 6.89356 11.9773 10.9148H12.3636C13.5227 6.70207 14.4886 3.82973 14.875 2.4893C15.6477 -0.191549 17.5795 -5.97364e-05 18.3523 -5.97364e-05H24.3409V18.3829H18.1591V7.46803H17.7727L14.4886 18.3829H9.85227L6.56818 7.46803H5.98864V18.3829H0M26.8523 -5.97364e-05H33.0341V10.9148H33.6136L37.6705 1.91483C38.4432 0.19143 40.1818 -5.97364e-05 40.1818 -5.97364e-05H45.9773V18.3829H39.7955V7.46803H39.4091L35.3523 16.468C34.5795 18.1914 32.6477 18.3829 32.6477 18.3829H26.8523M54.2841 12.8297V18.3829H48.4886V8.80845H67.4205C66.6477 11.1063 63.9432 12.8297 60.8523 12.8297" fill="#C5C5C5"/>
<path d="M67.8061 7.65957C68.5788 4.21277 66.2607 0 61.2379 0H48.1016C48.4879 4.02128 51.9652 7.65957 55.6357 7.65957" fill="#E0E0E0"/>
</g>
<defs>
<clipPath id="clip0_203_4811">
<rect width="68" height="18" fill="white"/>
</clipPath>
</defs>
</svg>
