<svg width="52" height="20" viewBox="0 0 52 20" fill="none" xmlns="http://www.w3.org/2000/svg">
<g clip-path="url(#clip0_203_4821)">
<path d="M35.4898 11.3218L36.0098 11.4783C35.9752 11.6262 35.9232 11.7479 35.8452 11.8435C35.7672 11.9392 35.6805 12.0175 35.5678 12.0609C35.4552 12.1131 35.3165 12.1392 35.1432 12.1392C34.9352 12.1392 34.7705 12.1131 34.6318 12.0522C34.5018 11.9914 34.3892 11.887 34.2938 11.7305C34.1985 11.5827 34.1465 11.3827 34.1465 11.1479C34.1465 10.8349 34.2332 10.5914 34.3978 10.4175C34.5625 10.2435 34.8052 10.1653 35.1085 10.1653C35.3512 10.1653 35.5332 10.2175 35.6718 10.3131C35.8105 10.4088 35.9145 10.5566 35.9752 10.7653L35.4552 10.8783C35.4378 10.8175 35.4205 10.774 35.3945 10.7479C35.3598 10.7044 35.3252 10.6696 35.2732 10.6435C35.2212 10.6175 35.1692 10.6088 35.1172 10.6088C34.9872 10.6088 34.8832 10.6609 34.8138 10.774C34.7618 10.8522 34.7358 10.9827 34.7358 11.1479C34.7358 11.3566 34.7705 11.5044 34.8312 11.5827C34.8918 11.6609 34.9872 11.7044 35.0998 11.7044C35.2125 11.7044 35.2992 11.6696 35.3512 11.6088C35.4205 11.5305 35.4638 11.4435 35.4898 11.3218Z" fill="#C5C5C5"/>
<path d="M36.2188 11.1479C36.2188 10.8349 36.3054 10.5914 36.4788 10.4175C36.6521 10.2436 36.8947 10.1566 37.2067 10.1566C37.5274 10.1566 37.7701 10.2436 37.9434 10.4088C38.1167 10.5827 38.2034 10.8175 38.2034 11.1305C38.2034 11.3566 38.1688 11.5392 38.0908 11.6784C38.0128 11.8175 37.9088 11.9305 37.7614 12.0088C37.6228 12.0871 37.4408 12.1305 37.2328 12.1305C37.0161 12.1305 36.8428 12.0957 36.6954 12.0262C36.5568 11.9566 36.4441 11.8523 36.3488 11.6957C36.2534 11.5392 36.2188 11.374 36.2188 11.1479ZM36.8081 11.1479C36.8081 11.3392 36.8428 11.4784 36.9121 11.5653C36.9814 11.6523 37.0767 11.6957 37.2067 11.6957C37.3367 11.6957 37.4321 11.6523 37.5014 11.574C37.5708 11.4871 37.6054 11.3392 37.6054 11.1305C37.6054 10.9479 37.5708 10.8175 37.4928 10.7392C37.4234 10.6523 37.3194 10.6175 37.1981 10.6175C37.0768 10.6175 36.9814 10.661 36.9121 10.7479C36.8428 10.8175 36.8081 10.9566 36.8081 11.1479Z" fill="#C5C5C5"/>
<path d="M38.5056 10.1914H39.2769L39.5716 11.3566L39.8663 10.1914H40.6376V12.1044H40.1523V10.6436L39.7796 12.1044H39.3463L38.9736 10.6436V12.1044H38.4883V10.1914H38.5056Z" fill="#C5C5C5"/>
<path d="M41.0195 10.1914H41.9989C42.2155 10.1914 42.3715 10.2436 42.4755 10.3479C42.5795 10.4523 42.6315 10.5914 42.6315 10.7827C42.6315 10.974 42.5709 11.1305 42.4582 11.2349C42.3455 11.3479 42.1635 11.4001 41.9295 11.4001H41.6089V12.1131H41.0195V10.1914ZM41.6089 11.0088H41.7562C41.8689 11.0088 41.9469 10.9914 41.9989 10.9479C42.0422 10.9044 42.0682 10.861 42.0682 10.8001C42.0682 10.7392 42.0509 10.6871 42.0075 10.6436C41.9642 10.6001 41.8949 10.5827 41.7822 10.5827H41.6175V11.0088H41.6089Z" fill="#C5C5C5"/>
<path d="M42.9434 10.1914H43.5327V11.6349H44.4514V12.1044H42.9434V10.1914Z" fill="#C5C5C5"/>
<path d="M44.7461 10.1914H45.3354V12.1044H44.7461V10.1914Z" fill="#C5C5C5"/>
<path d="M46.931 11.7827H46.2636L46.1683 12.0958H45.5703L46.2896 10.1827H46.931L47.6503 12.0958H47.035L46.931 11.7827ZM46.8096 11.374L46.6016 10.6871L46.3936 11.374H46.8096Z" fill="#C5C5C5"/>
<path d="M47.832 10.1914H48.378L49.0974 11.2523V10.1914H49.652V12.1044H49.0974L48.3867 11.0523V12.1044H47.832V10.1914Z" fill="#C5C5C5"/>
<path d="M49.9121 10.1914H51.7061V10.661H51.1081V12.1044H50.5188V10.661H49.9208V10.1914H49.9121Z" fill="#C5C5C5"/>
<path d="M28.4004 13.1044L30.1078 12.5653L29.5531 11.3305C29.1458 11.8435 28.7384 12.5044 28.4004 13.1044ZM27.8198 7.46093L24.4744 -0.017334L-0.0175781 1.37397L6.76842 19.9479L19.8291 15.8174C18.9971 14.6174 18.6938 13.1914 19.6558 12.4957C20.7304 11.7131 22.3511 12.6174 23.3824 13.8957C24.3791 12.2261 27.1784 8.33919 27.8198 7.46093Z" fill="#C5C5C5"/>
<path d="M23.7121 5.38695C24.7348 5.38695 25.5668 4.60434 25.5668 3.63042C25.5668 2.65651 24.7348 1.8739 23.7121 1.8739C22.6894 1.8739 21.8574 2.65651 21.8574 3.63042C21.8574 4.59564 22.6894 5.38695 23.7121 5.38695ZM22.1954 6.14347H25.2288V14.1H22.1954V6.14347Z" fill="white"/>
<path d="M20.6953 8.46523C20.7213 8.47392 20.7386 8.46523 20.7386 8.43914V6.42175C20.7386 6.39566 20.7213 6.36957 20.6953 6.35218C20.6953 6.35218 20.2966 6.09131 19.0833 6.02175C19.0226 5.98696 17.9566 5.97827 17.6706 6.02175C13.2506 6.37827 13.0859 9.58697 13.0859 9.7261V10.5087C13.0859 10.6044 13.0859 13.8826 17.6706 14.1696C18.1213 14.2044 18.9966 14.1696 19.0833 14.1696C20.1406 14.1696 20.8686 13.8478 20.8686 13.8478C20.8946 13.8391 20.9119 13.8131 20.9119 13.787V11.9C20.9119 11.8739 20.8946 11.8652 20.8773 11.8826C20.8773 11.8826 20.5479 12.1435 19.1093 12.2913C18.7019 12.3348 18.5026 12.3174 18.3553 12.2913C16.3099 11.9435 16.2146 10.4478 16.2146 10.4478C16.2146 10.4217 16.2059 10.3783 16.2059 10.3609V9.78697C16.2059 9.76088 16.2059 9.7174 16.2146 9.70001C16.2146 9.70001 16.3533 8.09131 18.3553 7.9174H19.1093C19.9846 8.03044 20.6953 8.46523 20.6953 8.46523Z" fill="white"/>
<path d="M4.66211 14.0739C4.66211 14.1 4.67944 14.1173 4.70544 14.1173H7.66078C7.68678 14.1173 7.70411 14.1 7.70411 14.0739V11.7608C7.70411 11.7347 7.72144 11.7173 7.74744 11.7173C7.74744 11.7173 12.4708 12.0565 12.4708 8.88256C12.4708 6.36952 9.50678 6.09996 8.53611 6.14343C8.51878 6.14343 4.70544 6.14343 4.70544 6.14343C4.67944 6.14343 4.66211 6.16083 4.66211 6.18691V14.0739ZM7.65211 9.95213V7.87387H8.38011C8.38011 7.87387 9.42878 7.91735 9.51544 8.63909C9.53278 8.69126 9.53278 9.04778 9.51544 9.06517C9.37678 9.90865 8.46678 9.95213 8.46678 9.95213H7.65211Z" fill="white"/>
<path d="M23.7992 17.9392C24.0419 17.9392 24.2325 17.9392 24.5445 17.8C25.6192 17.2348 29.2505 8.33916 33.0812 5.60003C33.1072 5.58264 33.1332 5.55655 33.1505 5.53046C33.1765 5.49568 33.1765 5.4609 33.1765 5.4609C33.1765 5.4609 33.1765 5.27829 32.6132 5.27829C29.2072 5.18264 25.6625 12.3566 23.7992 15.1913C23.7732 15.2261 23.6519 15.1913 23.6519 15.1913C23.6519 15.1913 22.4039 13.7131 21.3205 13.1479C21.2945 13.1392 21.1732 13.0957 21.0432 13.1044C20.9565 13.1044 20.4539 13.2087 20.2199 13.4522C19.9425 13.7479 19.9512 13.9131 19.9512 14.2696C19.9512 14.2957 19.9685 14.4174 20.0032 14.4783C20.2719 14.9479 21.4765 16.6174 22.4732 17.5392C22.6205 17.6522 22.8545 17.9392 23.7992 17.9392Z" fill="#E0E0E0"/>
<path d="M34.0859 2.91309H36.9199C37.4833 2.91309 37.9339 2.99135 38.2719 3.13917C38.6186 3.2957 38.9046 3.51309 39.1213 3.79135C39.3466 4.0783 39.5113 4.40874 39.6066 4.78265C39.7106 5.15656 39.7626 5.55656 39.7626 5.98265C39.7626 6.64352 39.6846 7.15656 39.5373 7.52178C39.3899 7.887 39.1819 8.19135 38.9133 8.44352C38.6446 8.687 38.3586 8.85222 38.0553 8.93917C37.6393 9.05222 37.2579 9.10439 36.9199 9.10439H34.0859V2.91309ZM35.9926 4.31309V7.69569H36.4606C36.8593 7.69569 37.1453 7.65222 37.3099 7.56526C37.4746 7.4783 37.6133 7.32178 37.7086 7.10439C37.8039 6.887 37.8559 6.52178 37.8559 6.02613C37.8559 5.36526 37.7519 4.92178 37.5353 4.6783C37.3186 4.43482 36.9719 4.31309 36.4693 4.31309H35.9926Z" fill="#C5C5C5"/>
<path d="M40.291 7.06092L42.111 6.94787C42.1543 7.24353 42.2324 7.46962 42.3537 7.62614C42.553 7.87831 42.8304 8.00005 43.1944 8.00005C43.463 8.00005 43.6797 7.93918 43.827 7.80874C43.9744 7.67831 44.0523 7.53049 44.0523 7.36527C44.0523 7.20875 43.983 7.06092 43.8444 6.93049C43.7057 6.80005 43.3763 6.68701 42.865 6.57396C42.0243 6.38266 41.435 6.13048 41.071 5.81744C40.707 5.5044 40.5337 5.1044 40.5337 4.61744C40.5337 4.2957 40.629 4.00005 40.811 3.71309C40.993 3.42614 41.2703 3.20874 41.643 3.04353C42.0157 2.87831 42.5183 2.80005 43.1597 2.80005C43.9483 2.80005 44.555 2.94788 44.9623 3.24353C45.3783 3.53918 45.621 4.00874 45.699 4.65222L43.8963 4.75657C43.8443 4.47831 43.749 4.27831 43.593 4.14788C43.437 4.01744 43.229 3.95657 42.9604 3.95657C42.735 3.95657 42.5703 4.00005 42.4577 4.0957C42.345 4.19135 42.293 4.3044 42.293 4.44353C42.293 4.53918 42.3364 4.63483 42.4317 4.71309C42.5184 4.79135 42.735 4.86961 43.073 4.93918C43.905 5.12179 44.503 5.3044 44.867 5.48701C45.231 5.66961 45.491 5.9044 45.6557 6.17396C45.8203 6.44353 45.8983 6.75657 45.8983 7.0957C45.8983 7.4957 45.7857 7.86092 45.569 8.19135C45.3523 8.53049 45.0404 8.78266 44.6504 8.95657C44.2604 9.13048 43.7577 9.21744 43.1597 9.21744C42.111 9.21744 41.383 9.01744 40.9757 8.60874C40.577 8.20005 40.3517 7.68701 40.291 7.06092Z" fill="#C5C5C5"/>
<path d="M46.3828 7.06092L48.2028 6.94787C48.2461 7.24353 48.3241 7.46962 48.4455 7.62614C48.6448 7.87831 48.9221 8.00005 49.2861 8.00005C49.5548 8.00005 49.7715 7.93918 49.9188 7.80874C50.0661 7.67831 50.1441 7.53049 50.1441 7.36527C50.1441 7.20875 50.0748 7.06092 49.9361 6.93049C49.7975 6.80005 49.4681 6.68701 48.9568 6.57396C48.1161 6.38266 47.5268 6.13048 47.1628 5.81744C46.8075 5.5044 46.6255 5.1044 46.6255 4.61744C46.6255 4.2957 46.7208 4.00005 46.9028 3.71309C47.0848 3.42614 47.3621 3.20874 47.7348 3.04353C48.1075 2.87831 48.6101 2.80005 49.2515 2.80005C50.0401 2.80005 50.6468 2.94788 51.0541 3.24353C51.4701 3.53918 51.7128 4.00874 51.7908 4.65222L49.9881 4.75657C49.9361 4.47831 49.8408 4.27831 49.6848 4.14788C49.5288 4.01744 49.3208 3.95657 49.0521 3.95657C48.8268 3.95657 48.6621 4.00005 48.5495 4.0957C48.4368 4.19135 48.3848 4.3044 48.3848 4.44353C48.3848 4.53918 48.4281 4.63483 48.5235 4.71309C48.6101 4.79135 48.8268 4.86961 49.1648 4.93918C49.9968 5.12179 50.5948 5.3044 50.9588 5.48701C51.3228 5.66961 51.5828 5.9044 51.7475 6.17396C51.9121 6.44353 51.9901 6.75657 51.9901 7.0957C51.9901 7.4957 51.8775 7.86092 51.6608 8.19135C51.4441 8.53049 51.1321 8.78266 50.7421 8.95657C50.3521 9.13048 49.8495 9.21744 49.2515 9.21744C48.2028 9.21744 47.4748 9.01744 47.0675 8.60874C46.6601 8.20005 46.4348 7.68701 46.3828 7.06092Z" fill="#C5C5C5"/>
</g>
<defs>
<clipPath id="clip0_203_4821">
<rect width="52" height="20" fill="white"/>
</clipPath>
</defs>
</svg>
