<svg width="32" height="32" viewBox="0 0 32 32" fill="none" xmlns="http://www.w3.org/2000/svg">
<path d="M8.0002 6.40002C6.72716 6.40002 5.50626 6.90574 4.60608 7.80591C3.70591 8.70609 3.2002 9.92699 3.2002 11.2V20.8C3.2002 22.0731 3.70591 23.294 4.60608 24.1941C5.50626 25.0943 6.72716 25.6 8.0002 25.6H17.6802C17.8521 24.7575 18.2909 23.9928 18.9315 23.4193C19.5722 22.8457 20.3807 22.4939 21.237 22.416C20.7961 21.9256 20.461 21.3496 20.2527 20.7239C20.0443 20.0983 19.967 19.4364 20.0258 18.7795C20.0845 18.1227 20.278 17.485 20.5941 16.9062C20.9102 16.3275 21.3422 15.8201 21.863 15.4156C22.3839 15.0112 22.9826 14.7185 23.6216 14.5557C24.2607 14.3929 24.9264 14.3635 25.5773 14.4693C26.2282 14.5752 26.8503 14.8141 27.4048 15.171C27.9593 15.528 28.4343 15.9954 28.8002 16.544V11.2C28.8002 9.92699 28.2945 8.70609 27.3943 7.80591C26.4941 6.90574 25.2732 6.40002 24.0002 6.40002H8.0002ZM28.0002 19.2C28.0002 20.0487 27.6631 20.8626 27.0629 21.4628C26.4628 22.0629 25.6489 22.4 24.8002 22.4C23.9515 22.4 23.1376 22.0629 22.5375 21.4628C21.9373 20.8626 21.6002 20.0487 21.6002 19.2C21.6002 18.3513 21.9373 17.5374 22.5375 16.9373C23.1376 16.3372 23.9515 16 24.8002 16C25.6489 16 26.4628 16.3372 27.0629 16.9373C27.6631 17.5374 28.0002 18.3513 28.0002 19.2ZM30.4002 26.4C30.4002 28.392 28.8002 30.4 24.8002 30.4C20.8002 30.4 19.2002 28.4 19.2002 26.4C19.2002 25.7635 19.4531 25.1531 19.9031 24.703C20.3532 24.2529 20.9637 24 21.6002 24H28.0002C28.6367 24 29.2472 24.2529 29.6973 24.703C30.1473 25.1531 30.4002 25.7635 30.4002 26.4Z" fill="white"/>
</svg>
