<svg xmlns="http://www.w3.org/2000/svg" width="54" height="32" viewBox="0 0 54 32" fill="none">
  <path d="M54 16C54 24.7795 46.8615 32 38 32C29.2205 32 22 24.7795 22 16C22 7.22051 29.1385 0 37.918 0C46.8615 0 54 7.22051 54 16Z" fill="#F79E1B"/>
  <path d="M32 16C32 24.7795 24.8615 32 16 32C7.22051 32 0 24.7795 0 16C0 7.22051 7.13846 0 15.918 0C24.8615 0 32 7.22051 32 16Z" fill="#EB001B"/>
  <path fill-rule="evenodd" clip-rule="evenodd" d="M27.0159 27.5925C30.0885 24.6688 32 20.5431 32 16C32 11.449 30.0819 7.317 26.9886 4.3924C23.9181 7.317 22 11.449 22 16C22 20.5431 23.9335 24.6688 27.0159 27.5925Z" fill="#FF4F37"/>
</svg>
