<svg xmlns="http://www.w3.org/2000/svg" width="16" height="16" viewBox="0 0 16 16" fill="none">
  <path fill-rule="evenodd" clip-rule="evenodd" d="M12.9973 2.08868C13.145 1.99982 13.3214 1.97164 13.4894 2.01005C13.6575 2.04846 13.8041 2.15047 13.8986 2.29468L14.5586 3.30135C14.6446 3.43285 14.6814 3.59053 14.6625 3.74654C14.6436 3.90255 14.5702 4.04686 14.4553 4.15401L14.4533 4.15668L14.4439 4.16535L14.4059 4.20068L14.2559 4.34401C13.426 5.14912 12.6211 5.97974 11.8426 6.83468C10.3779 8.44535 8.63859 10.5533 7.46793 12.5987C7.14126 13.1693 6.34326 13.292 5.86993 12.7993L1.54659 8.30735C1.48464 8.24295 1.43626 8.16675 1.40434 8.08328C1.37242 7.99982 1.3576 7.91078 1.36077 7.82148C1.36394 7.73217 1.38504 7.64441 1.4228 7.56342C1.46056 7.48243 1.51422 7.40985 1.58059 7.35001L2.88726 6.17135C3.00209 6.06782 3.14933 6.00742 3.30378 6.00049C3.45823 5.99356 3.61029 6.04052 3.73393 6.13335L5.93993 7.78735C9.38593 4.38935 11.3399 3.08535 12.9973 2.08868Z" fill="#759C5C"/>
</svg>
