<svg xmlns="http://www.w3.org/2000/svg" xmlns:xlink="http://www.w3.org/1999/xlink"><symbol id="icon-mastercard" viewBox="0 0 24 15"><g clip-path="url(#clip0_203_4786)"><path d="M15.237 1.606H8.742v11.805h6.495V1.606z" fill="#FF5A00"/><path d="M9.175 7.509A7.562 7.562 0 0112 1.606 7.328 7.328 0 007.422 0C3.319 0 0 3.358 0 7.509c0 4.15 3.32 7.509 7.422 7.509 1.732 0 3.32-.605 4.578-1.607A7.525 7.525 0 019.175 7.51z" fill="#EB001B"/><path d="M24 7.509c0 4.15-3.32 7.509-7.422 7.509A7.328 7.328 0 0112 13.41a7.5 7.5 0 002.825-5.902A7.562 7.562 0 0012 1.606 7.317 7.317 0 0116.576 0C20.68 0 24 3.38 24 7.509z" fill="#F79E1B"/></g><defs><clipPath id="clip0_203_4786"><path fill="#fff" d="M0 0h24v15H0z"/></clipPath></defs></symbol> <view id="icon-mastercard-view" viewBox="0 0 24 15"/> <use xlink:href="#icon-mastercard" x="0" y="0" width="24" height="15"/></svg>