<svg xmlns="http://www.w3.org/2000/svg" xmlns:xlink="http://www.w3.org/1999/xlink"><symbol id="icon-18-up" viewBox="0 0 18 18"><path d="M6.18 7.792v3.02a.588.588 0 00.605.605.594.594 0 00.433-.172.578.578 0 00.17-.432V7.187a.585.585 0 00-.603-.604H5.576a.585.585 0 00-.604.604.585.585 0 00.604.605h.605zm3.223 3.625h2.014a.78.78 0 00.574-.232.776.776 0 00.231-.574V7.39a.777.777 0 00-.232-.574.783.783 0 00-.573-.232H9.403a.777.777 0 00-.574.232.783.783 0 00-.232.574v3.222c0 .228.078.42.232.574a.777.777 0 00.574.232zm.403-.806V9.403h1.208v1.208H9.806zm0-2.014V7.39h1.208v1.208H9.806zM3.36 16.25a1.55 1.55 0 01-1.137-.473 1.554 1.554 0 01-.474-1.138V3.36c0-.443.158-.822.474-1.137A1.555 1.555 0 013.36 1.75H14.64c.443 0 .822.158 1.138.474.316.315.473.695.473 1.137V14.64c0 .443-.158.822-.473 1.138a1.547 1.547 0 01-1.138.473H3.36z" fill="#fff"/></symbol><symbol id="icon-account" viewBox="0 0 26 26"><path d="M23.804 21.328a12.53 12.53 0 00-6.173-5.406 7.718 7.718 0 10-9.262 0 12.529 12.529 0 00-6.173 5.406 1.22 1.22 0 102.109 1.219c1.84-3.181 5.09-5.078 8.695-5.078 3.604 0 6.854 1.898 8.695 5.078a1.219 1.219 0 002.109-1.219zM7.719 9.75a5.281 5.281 0 115.28 5.281A5.287 5.287 0 017.72 9.75z"/></symbol><symbol id="icon-card-fill" viewBox="0 0 18 18"><path d="M15.583 3.333h-3.75v2.834H6.167V3.333h-3.75C1.635 3.333 1 3.968 1 4.75v10.389c0 .782.635 1.417 1.417 1.417h13.166c.783 0 1.417-.635 1.417-1.417V4.75c0-.782-.634-1.417-1.417-1.417zM9 8.056a1.89 1.89 0 011.889 1.888A1.89 1.89 0 019 11.834a1.89 1.89 0 01-1.889-1.89A1.89 1.89 0 019 8.056zm2.754 6.61H6.246c-.307 0-.555-.295-.46-.584a1.89 1.89 0 011.797-1.304h.242a3.047 3.047 0 002.35 0h.242c.838 0 1.55.546 1.797 1.304.095.29-.153.585-.46.585zM10.889 2.39a.943.943 0 00-.945-.945H8.056a.943.943 0 00-.945.945v2.833h3.778V2.39z" fill="#fff"/></symbol><symbol id="icon-card" viewBox="0 0 32 32"><path d="M29.333 13.333v9.334a4 4 0 01-4 4H6.667a4 4 0 01-4-4v-9.334h26.666zM24 18.667h-4a1.333 1.333 0 100 2.666h4a1.334 1.334 0 000-2.666zm1.333-13.334a4 4 0 014 4v1.334H2.667V9.333a4 4 0 014-4h18.666z" fill="#fff"/></symbol><symbol id="icon-db" viewBox="0 0 28 28"><path d="M24.5 18.834v1.583c0 .95-.445 1.761-1.062 2.4-.61.632-1.438 1.148-2.37 1.556-1.87.816-4.368 1.294-7.068 1.294-2.7 0-5.199-.476-7.068-1.294-.932-.409-1.76-.924-2.37-1.556-.566-.584-.986-1.317-1.053-2.166l-.009-.234v-1.584c.542.31 1.123.58 1.743.811 2.368.877 5.466 1.365 8.757 1.365 3.291 0 6.389-.489 8.757-1.365a11.73 11.73 0 001.329-.586l.414-.224zm-21-6.417c.542.31 1.123.58 1.743.81 2.368.877 5.466 1.366 8.757 1.366 3.291 0 6.389-.49 8.757-1.365a11.667 11.667 0 001.743-.811v3.622a9.683 9.683 0 01-2.553 1.417c-2.047.758-4.858 1.221-7.947 1.221-3.088 0-5.899-.463-7.947-1.221A9.683 9.683 0 013.5 16.039v-3.622zM14 3.5c2.7 0 5.199.476 7.068 1.294.932.408 1.76.924 2.37 1.556.566.584.986 1.316 1.053 2.165l.009.235v.873a9.682 9.682 0 01-2.553 1.416c-2.047.758-4.858 1.222-7.947 1.222-3.088 0-5.899-.464-7.947-1.222A9.685 9.685 0 013.83 9.865l-.33-.242V8.75c0-.95.445-1.762 1.062-2.4.61-.632 1.438-1.148 2.37-1.556C8.802 3.977 11.3 3.5 14 3.5z"/></symbol><symbol id="icon-div-h" viewBox="0 0 346 4"><path d="M2 2h342" stroke="#759C5C" stroke-opacity="0.48" stroke-width="3" stroke-linecap="round" stroke-dasharray="6.5 6.5"/></symbol><symbol id="icon-div-lg" viewBox="0 0 4 66"><path d="M2 2v62" stroke="#759C5C" stroke-opacity="0.48" stroke-width="3" stroke-linecap="round" stroke-dasharray="6.5 6.5"/></symbol><symbol id="icon-div-sm" viewBox="0 0 4 22"><path d="M2 20V2" stroke="#759C5C" stroke-opacity="0.48" stroke-width="3" stroke-linecap="round" stroke-dasharray="6.5 6.5"/></symbol><symbol id="icon-div" viewBox="0 0 4 52"><path d="M2 50V2" stroke="#759C5C" stroke-opacity="0.48" stroke-width="3" stroke-linecap="round" stroke-dasharray="6.5 6.5"/></symbol><symbol id="icon-menu-close" viewBox="0 0 16 16"><path d="M3.883 2.421L8 6.54l4.096-4.096a.982.982 0 01.704-.31 1.067 1.067 0 01.995 1.449.962.962 0 01-.216.322L9.429 8l4.15 4.15a.96.96 0 01.288.65 1.067 1.067 0 01-1.067 1.067.98.98 0 01-.736-.288L8 9.46l-4.107 4.107a.98.98 0 01-.693.299 1.066 1.066 0 01-.995-1.449.96.96 0 01.216-.322L6.571 8 2.42 3.85a.96.96 0 01-.288-.65A1.067 1.067 0 013.2 2.133a.984.984 0 01.683.288z"/></symbol><symbol id="icon-menu-open" viewBox="0 0 16 16"><path d="M6.305 1H1.9A.903.903 0 001 1.899v4.406c0 .487.398.9.899.9h4.406a.903.903 0 00.9-.9V1.9a.903.903 0 00-.9-.899zM14.101 1H9.695a.903.903 0 00-.9.899v4.406c0 .487.399.9.9.9H14.1a.902.902 0 00.899-.9V1.9A.893.893 0 0014.101 1zM6.305 8.796H1.9A.903.903 0 001 9.695V14.1c0 .486.398.899.899.899h4.406a.903.903 0 00.9-.899V9.695a.912.912 0 00-.9-.9zM14.101 8.796H9.695a.903.903 0 00-.9.899V14.1c0 .486.399.899.9.899H14.1a.903.903 0 00.899-.899V9.695a.902.902 0 00-.899-.9z"/></symbol><symbol id="icon-passport" viewBox="0 0 18 18"><g clip-path="url(#clip0_62_1157)" fill="#fff"><path d="M9 6.75a2.25 2.25 0 100 4.5 2.25 2.25 0 000-4.5z"/><path d="M2.25 3.659a1.688 1.688 0 011.387-1.661l9-1.636a1.688 1.688 0 011.989 1.66v.528A2.25 2.25 0 0115.75 4.5v11.25A2.25 2.25 0 0113.5 18h-9a2.25 2.25 0 01-1.699-.774 1.688 1.688 0 01-.551-1.249V3.658zM5.627 9a3.375 3.375 0 106.75 0 3.375 3.375 0 00-6.75 0zm0 5.063a.562.562 0 00.562.562h5.625a.563.563 0 000-1.125H6.188a.562.562 0 00-.562.563z"/></g><defs><clipPath id="clip0_62_1157"><path fill="#fff" d="M0 0h18v18H0z"/></clipPath></defs></symbol><symbol id="icon-pencil" viewBox="0 0 28 28"><path d="M13.3 21.188l8.629-8.629a12.017 12.017 0 01-3.88-2.606c-1.116-1.11-2.002-2.43-2.608-3.882L6.812 14.7c-.673.673-1.01 1.01-1.3 1.381a7.697 7.697 0 00-.873 1.413c-.202.425-.353.878-.654 1.78l-1.589 4.764a1.237 1.237 0 001.566 1.566l4.764-1.59c.904-.3 1.355-.45 1.78-.653.503-.24.974-.53 1.413-.873.37-.29.708-.627 1.381-1.3zm11.023-11.023a4.588 4.588 0 00-6.488-6.488L16.8 4.712l.044.13a10.208 10.208 0 002.441 3.873 10.209 10.209 0 004.003 2.485l1.035-1.035z"/></symbol><symbol id="icon-person" viewBox="0 0 32 32"><path d="M8 6.4a4.8 4.8 0 00-4.8 4.8v9.6A4.8 4.8 0 008 25.6h9.68a4 4 0 013.557-3.184 4.797 4.797 0 01.626-7 4.8 4.8 0 016.937 1.128V11.2A4.8 4.8 0 0024 6.4H8zm20 12.8a3.2 3.2 0 11-6.4 0 3.2 3.2 0 016.4 0zm2.4 7.2c0 1.992-1.6 4-5.6 4-4 0-5.6-2-5.6-4a2.4 2.4 0 012.4-2.4H28a2.4 2.4 0 012.4 2.4z" fill="#fff"/></symbol><symbol id="icon-phone" viewBox="0 0 18 18"><path d="M5.236 1c-1.186 0-2.15.897-2.15 2v12c0 1.103.964 2 2.15 2h7.528c1.186 0 2.15-.897 2.15-2V3c0-1.103-.964-2-2.15-2H5.236zm2.689 13.5h2.15c.296 0 .538.225.538.5s-.242.5-.538.5h-2.15c-.296 0-.538-.225-.538-.5s.242-.5.538-.5z" fill="#fff"/></symbol><symbol id="icon-pin" viewBox="0 0 32 32"><path d="M16 2.667c-5.881 0-10.667 4.785-10.667 10.66C5.295 21.92 15.595 29.045 16 29.333c0 0 10.705-7.413 10.667-16C26.667 7.452 21.88 2.667 16 2.667zm0 16a5.332 5.332 0 01-5.333-5.334A5.332 5.332 0 0116 8a5.332 5.332 0 015.333 5.333A5.332 5.332 0 0116 18.667z" fill="#fff"/></symbol><symbol id="icon-search" viewBox="0 0 28 28"><path d="M20.076 20.076l5.674 5.674M12.984 21.967a8.984 8.984 0 100-17.967 8.984 8.984 0 000 17.967z"/></symbol><symbol id="icon-telegram" viewBox="0 0 26 26"><path fill-rule="evenodd" clip-rule="evenodd" d="M25.047 4.86a1.769 1.769 0 00-.662-1.691 1.811 1.811 0 00-1.815-.243L2.03 11.492c-1.432.598-1.505 2.649 0 3.268a68.878 68.878 0 004.533 1.687c1.403.459 2.933.884 4.16 1.004.335.397.756.78 1.186 1.13.657.536 1.448 1.087 2.265 1.615 1.636 1.059 3.45 2.071 4.673 2.73a2.377 2.377 0 003.474-1.697L25.047 4.86zM4.334 13.115l18.166-7.576-2.544 15.276c-1.2-.646-2.929-1.613-4.468-2.61-.71-.451-1.395-.94-2.053-1.462a9.577 9.577 0 01-.512-.445l4.758-4.712a1.184 1.184 0 000-1.683 1.207 1.207 0 00-1.699 0l-5.209 5.16c-.882-.112-2.11-.436-3.457-.876a59.284 59.284 0 01-2.981-1.073l-.001.001z"/></symbol><symbol id="icon-wifi" viewBox="0 0 18 18"><path fill-rule="evenodd" clip-rule="evenodd" d="M11.558 12.32a1.77 1.77 0 00-.158-.188 2.829 2.829 0 00-.472-.397c-.424-.288-1.06-.561-1.928-.561-.868 0-1.504.273-1.928.56a2.831 2.831 0 00-.594.54c-.015.019.009-.012 0 0l-.054.073a.543.543 0 00.073.695l2.125 2.055c.211.204.545.204.756 0l2.126-2.055a.543.543 0 00.072-.695l-.018-.026z" fill="#fff"/><path fill-rule="evenodd" clip-rule="evenodd" d="M14.607 9.47a3.109 3.109 0 00-.089-.133 3.632 3.632 0 00-.233-.29 5.131 5.131 0 00-.965-.837c-.893-.604-2.284-1.18-4.32-1.18-2.037 0-3.428.576-4.32 1.18-.444.3-.759.603-.966.837a3.631 3.631 0 00-.312.408l-.01.016a.543.543 0 00.09.668l1.2 1.155a.545.545 0 00.782-.029l.006-.007.037-.037a4.663 4.663 0 01.842-.631 5.2 5.2 0 012.65-.707 5.2 5.2 0 012.651.707c.301.176.528.352.678.48a3.117 3.117 0 01.207.195m0 0a.542.542 0 00.782.029l1.2-1.155a.543.543 0 00.09-.668" fill="#fff"/><path d="M17.56 6.461c.01.016.04.056.04.056a.544.544 0 01-.07.7l-1.246 1.206a.544.544 0 01-.793-.04l-.003-.004a1.508 1.508 0 00-.09-.1 6.257 6.257 0 00-.314-.305 8.785 8.785 0 00-1.257-.95A9.023 9.023 0 009 5.636c-2.091 0-3.719.693-4.826 1.386a8.783 8.783 0 00-1.257.95 6.292 6.292 0 00-.405.406l-.001.002-.001.001a.543.543 0 01-.793.04L.47 7.218a.543.543 0 01-.069-.7l.001-.001.001-.002.003-.004.008-.011a2.491 2.491 0 01.128-.166c.087-.108.215-.258.386-.436a9.384 9.384 0 011.555-1.29C3.886 3.673 6.028 2.75 9 2.75c2.973 0 5.115.922 6.518 1.858.7.466 1.213.934 1.555 1.29a6.797 6.797 0 01.486.563z" fill="#fff"/></symbol> <view id="icon-18-up-view" viewBox="0 0 18 18"/><view id="icon-account-view" viewBox="0 28 26 26"/><view id="icon-card-fill-view" viewBox="0 64 18 18"/><view id="icon-card-view" viewBox="0 92 32 32"/><view id="icon-db-view" viewBox="0 134 28 28"/><view id="icon-div-h-view" viewBox="0 172 346 4"/><view id="icon-div-lg-view" viewBox="0 186 4 66"/><view id="icon-div-sm-view" viewBox="0 262 4 22"/><view id="icon-div-view" viewBox="0 294 4 52"/><view id="icon-menu-close-view" viewBox="0 356 16 16"/><view id="icon-menu-open-view" viewBox="0 382 16 16"/><view id="icon-passport-view" viewBox="0 408 18 18"/><view id="icon-pencil-view" viewBox="0 436 28 28"/><view id="icon-person-view" viewBox="0 474 32 32"/><view id="icon-phone-view" viewBox="0 516 18 18"/><view id="icon-pin-view" viewBox="0 544 32 32"/><view id="icon-search-view" viewBox="0 586 28 28"/><view id="icon-telegram-view" viewBox="0 624 26 26"/><view id="icon-wifi-view" viewBox="0 660 18 18"/> <use xlink:href="#icon-18-up" x="0" y="0" width="18" height="18"/><use xlink:href="#icon-account" x="0" y="28" width="26" height="26"/><use xlink:href="#icon-card-fill" x="0" y="64" width="18" height="18"/><use xlink:href="#icon-card" x="0" y="92" width="32" height="32"/><use xlink:href="#icon-db" x="0" y="134" width="28" height="28"/><use xlink:href="#icon-div-h" x="0" y="172" width="346" height="4"/><use xlink:href="#icon-div-lg" x="0" y="186" width="4" height="66"/><use xlink:href="#icon-div-sm" x="0" y="262" width="4" height="22"/><use xlink:href="#icon-div" x="0" y="294" width="4" height="52"/><use xlink:href="#icon-menu-close" x="0" y="356" width="16" height="16"/><use xlink:href="#icon-menu-open" x="0" y="382" width="16" height="16"/><use xlink:href="#icon-passport" x="0" y="408" width="18" height="18"/><use xlink:href="#icon-pencil" x="0" y="436" width="28" height="28"/><use xlink:href="#icon-person" x="0" y="474" width="32" height="32"/><use xlink:href="#icon-phone" x="0" y="516" width="18" height="18"/><use xlink:href="#icon-pin" x="0" y="544" width="32" height="32"/><use xlink:href="#icon-search" x="0" y="586" width="28" height="28"/><use xlink:href="#icon-telegram" x="0" y="624" width="26" height="26"/><use xlink:href="#icon-wifi" x="0" y="660" width="18" height="18"/></svg>