<svg xmlns="http://www.w3.org/2000/svg" xmlns:xlink="http://www.w3.org/1999/xlink"><symbol id="icon-account" viewBox="0 0 26 26"><path d="M23.804 21.328a12.53 12.53 0 00-6.173-5.406 7.718 7.718 0 10-9.262 0 12.529 12.529 0 00-6.173 5.406 1.22 1.22 0 102.109 1.219c1.84-3.181 5.09-5.078 8.695-5.078 3.604 0 6.854 1.898 8.695 5.078a1.219 1.219 0 002.109-1.219zM7.719 9.75a5.281 5.281 0 115.28 5.281A5.287 5.287 0 017.72 9.75z"/></symbol><symbol id="icon-menu-close" viewBox="0 0 16 16"><path d="M3.883 2.421L8 6.54l4.096-4.096a.982.982 0 01.704-.31 1.067 1.067 0 01.995 1.449.962.962 0 01-.216.322L9.429 8l4.15 4.15a.96.96 0 01.288.65 1.067 1.067 0 01-1.067 1.067.98.98 0 01-.736-.288L8 9.46l-4.107 4.107a.98.98 0 01-.693.299 1.066 1.066 0 01-.995-1.449.96.96 0 01.216-.322L6.571 8 2.42 3.85a.96.96 0 01-.288-.65A1.067 1.067 0 013.2 2.133a.984.984 0 01.683.288z"/></symbol><symbol id="icon-menu-open" viewBox="0 0 16 16"><path d="M6.305 1H1.9A.903.903 0 001 1.899v4.406c0 .487.398.9.899.9h4.406a.903.903 0 00.9-.9V1.9a.903.903 0 00-.9-.899zM14.101 1H9.695a.903.903 0 00-.9.899v4.406c0 .487.399.9.9.9H14.1a.902.902 0 00.899-.9V1.9A.893.893 0 0014.101 1zM6.305 8.796H1.9A.903.903 0 001 9.695V14.1c0 .486.398.899.899.899h4.406a.903.903 0 00.9-.899V9.695a.912.912 0 00-.9-.9zM14.101 8.796H9.695a.903.903 0 00-.9.899V14.1c0 .486.399.899.9.899H14.1a.903.903 0 00.899-.899V9.695a.902.902 0 00-.899-.9z"/></symbol><symbol id="icon-telegram" viewBox="0 0 26 26"><path fill-rule="evenodd" clip-rule="evenodd" d="M25.047 4.86a1.769 1.769 0 00-.662-1.691 1.811 1.811 0 00-1.815-.243L2.03 11.492c-1.432.598-1.505 2.649 0 3.268a68.878 68.878 0 004.533 1.687c1.403.459 2.933.884 4.16 1.004.335.397.756.78 1.186 1.13.657.536 1.448 1.087 2.265 1.615 1.636 1.059 3.45 2.071 4.673 2.73a2.377 2.377 0 003.474-1.697L25.047 4.86zM4.334 13.115l18.166-7.576-2.544 15.276c-1.2-.646-2.929-1.613-4.468-2.61-.71-.451-1.395-.94-2.053-1.462a9.577 9.577 0 01-.512-.445l4.758-4.712a1.184 1.184 0 000-1.683 1.207 1.207 0 00-1.699 0l-5.209 5.16c-.882-.112-2.11-.436-3.457-.876a59.284 59.284 0 01-2.981-1.073l-.001.001z"/></symbol> <view id="icon-account-view" viewBox="0 0 26 26"/><view id="icon-menu-close-view" viewBox="0 36 16 16"/><view id="icon-menu-open-view" viewBox="0 62 16 16"/><view id="icon-telegram-view" viewBox="0 88 26 26"/> <use xlink:href="#icon-account" x="0" y="0" width="26" height="26"/><use xlink:href="#icon-menu-close" x="0" y="36" width="16" height="16"/><use xlink:href="#icon-menu-open" x="0" y="62" width="16" height="16"/><use xlink:href="#icon-telegram" x="0" y="88" width="26" height="26"/></svg>