<svg xmlns="http://www.w3.org/2000/svg" xmlns:xlink="http://www.w3.org/1999/xlink"><symbol id="icon-mastercard" viewBox="0 0 24 15"><g clip-path="url(#clip0_203_4786)"><path d="M15.237 1.606H8.742v11.805h6.495V1.606z" fill="#FF5A00"/><path d="M9.175 7.509A7.562 7.562 0 0112 1.606 7.328 7.328 0 007.422 0C3.319 0 0 3.358 0 7.509c0 4.15 3.32 7.509 7.422 7.509 1.732 0 3.32-.605 4.578-1.607A7.525 7.525 0 019.175 7.51z" fill="#EB001B"/><path d="M24 7.509c0 4.15-3.32 7.509-7.422 7.509A7.328 7.328 0 0112 13.41a7.5 7.5 0 002.825-5.902A7.562 7.562 0 0012 1.606 7.317 7.317 0 0116.576 0C20.68 0 24 3.38 24 7.509z" fill="#F79E1B"/></g><defs><clipPath id="clip0_203_4786"><path fill="#fff" d="M0 0h24v15H0z"/></clipPath></defs></symbol><symbol id="icon-modal-alfa" viewBox="0 0 88 88"><mask id="a" fill="#fff"><path fill-rule="evenodd" clip-rule="evenodd" d="M2.4 41.94c-1.253-.094-2.4.846-2.4 2.102V66c0 12.15 9.85 22 22 22h44c12.15 0 22-9.85 22-22V22C88 9.85 78.15 0 66 0H22c-1.726 0-3.405.199-5.017.575-1.66.387-1.75 2.597-.386 3.62C21.699 8.028 25 14.129 25 21c0 11.598-9.402 21-21 21-.538 0-1.072-.02-1.6-.06z"/></mask><path fill-rule="evenodd" clip-rule="evenodd" d="M2.4 41.94c-1.253-.094-2.4.846-2.4 2.102V66c0 12.15 9.85 22 22 22h44c12.15 0 22-9.85 22-22V22C88 9.85 78.15 0 66 0H22c-1.726 0-3.405.199-5.017.575-1.66.387-1.75 2.597-.386 3.62C21.699 8.028 25 14.129 25 21c0 11.598-9.402 21-21 21-.538 0-1.072-.02-1.6-.06z" fill="#EF3124"/><path d="M16.597 4.196l-1.201 1.6 1.2-1.6zM2.4 41.94l-.15 1.994.15-1.994zM2 66V44.042h-4V66h4zm20 20C10.954 86 2 77.046 2 66h-4c0 13.255 10.745 24 24 24v-4zm44 0H22v4h44v-4zm20-20c0 11.046-8.954 20-20 20v4c13.255 0 24-10.745 24-24h-4zm0-44v44h4V22h-4zM66 2c11.046 0 20 8.954 20 20h4C90 8.745 79.255-2 66-2v4zM22 2h44v-4H22v4zm-4.562.522A20.066 20.066 0 0122 2v-4c-1.88 0-3.712.216-5.47.627l.908 3.895zm-2.042 3.273C20.016 9.265 23 14.784 23 21h4c0-7.528-3.619-14.21-9.203-18.403l-2.401 3.198zM23 21c0 10.493-8.507 19-19 19v4c12.703 0 23-10.297 23-23h-4zM4 40c-.488 0-.972-.018-1.45-.054l-.3 3.988C2.828 43.978 3.41 44 4 44v-4zM16.53-1.373c-1.803.42-2.749 1.896-2.868 3.356a4.358 4.358 0 001.734 3.812l2.401-3.198a.378.378 0 01-.119-.151.304.304 0 01-.03-.137c.003-.02.004.025-.052.095a.404.404 0 01-.1.09c-.037.023-.06.029-.058.028l-.909-3.895zM2 44.042v-.003c0 .001 0 .002 0 0a.129.129 0 01.032-.037.307.307 0 01.218-.068l.3-3.988C.291 39.776-2 41.472-2 44.042h4z" fill="#fff" fill-opacity="0.22" mask="url(#a)"/><path fill-rule="evenodd" clip-rule="evenodd" d="M56.611 62.4H31.39v-5.245H56.61V62.4zm-.553-12.362h-5.503l-1.676-5.28h-9.954l-1.81 5.28h-5.173l7.804-22.2c.758-2.149 1.64-3.834 4.486-3.834 2.836 0 3.666 1.694 4.388 3.835l7.438 22.2zm-8.615-9.73l-3.345-10.516h-.134l-3.54 10.516h7.019z" fill="#fff"/></symbol><symbol id="icon-modal-t-bank" viewBox="0 0 88 88"><mask id="a" fill="#fff"><path fill-rule="evenodd" clip-rule="evenodd" d="M2.4 41.94c-1.253-.094-2.4.846-2.4 2.102V66c0 12.15 9.85 22 22 22h44c12.15 0 22-9.85 22-22V22C88 9.85 78.15 0 66 0H22c-1.726 0-3.405.199-5.017.575-1.66.387-1.75 2.597-.386 3.62C21.699 8.028 25 14.129 25 21c0 11.598-9.402 21-21 21-.538 0-1.072-.02-1.6-.06z"/></mask><path fill-rule="evenodd" clip-rule="evenodd" d="M2.4 41.94c-1.253-.094-2.4.846-2.4 2.102V66c0 12.15 9.85 22 22 22h44c12.15 0 22-9.85 22-22V22C88 9.85 78.15 0 66 0H22c-1.726 0-3.405.199-5.017.575-1.66.387-1.75 2.597-.386 3.62C21.699 8.028 25 14.129 25 21c0 11.598-9.402 21-21 21-.538 0-1.072-.02-1.6-.06z" fill="#FFDD2D"/><path d="M16.597 4.196l-1.201 1.6 1.2-1.6zM2.4 41.94l-.15 1.994.15-1.994zM2 66V44.042h-4V66h4zm20 20C10.954 86 2 77.046 2 66h-4c0 13.255 10.745 24 24 24v-4zm44 0H22v4h44v-4zm20-20c0 11.046-8.954 20-20 20v4c13.255 0 24-10.745 24-24h-4zm0-44v44h4V22h-4zM66 2c11.046 0 20 8.954 20 20h4C90 8.745 79.255-2 66-2v4zM22 2h44v-4H22v4zm-4.562.522A20.066 20.066 0 0122 2v-4c-1.88 0-3.712.216-5.47.627l.908 3.895zm-2.042 3.273C20.016 9.265 23 14.784 23 21h4c0-7.528-3.619-14.21-9.203-18.403l-2.401 3.198zM23 21c0 10.493-8.507 19-19 19v4c12.703 0 23-10.297 23-23h-4zM4 40c-.488 0-.972-.018-1.45-.054l-.3 3.988C2.828 43.978 3.41 44 4 44v-4zM16.53-1.373c-1.803.42-2.749 1.896-2.868 3.356a4.358 4.358 0 001.734 3.812l2.401-3.198a.378.378 0 01-.119-.151.304.304 0 01-.03-.137c.003-.02.004.025-.052.095a.404.404 0 01-.1.09c-.037.023-.06.029-.058.028l-.909-3.895zM2 44.042v-.003c0 .001 0 .002 0 0a.129.129 0 01.032-.037.307.307 0 01.218-.068l.3-3.988C.291 39.776-2 41.472-2 44.042h4z" fill="#fff" fill-opacity="0.22" mask="url(#a)"/><path fill-rule="evenodd" clip-rule="evenodd" d="M26.715 29.071v11.342c1.639-1.753 4.621-2.934 8.028-2.934h3.702v13.184c0 3.507-1.009 6.579-2.503 8.266h16.112c-1.494-1.692-2.498-4.755-2.498-8.261v-13.19h3.702c3.407 0 6.39 1.187 8.028 2.935V29.071H26.715z" fill="#333"/></symbol> <view id="icon-mastercard-view" viewBox="0 0 24 15"/><view id="icon-modal-alfa-view" viewBox="0 25 88 88"/><view id="icon-modal-t-bank-view" viewBox="0 123 88 88"/> <use xlink:href="#icon-mastercard" x="0" y="0" width="24" height="15"/><use xlink:href="#icon-modal-alfa" x="0" y="25" width="88" height="88"/><use xlink:href="#icon-modal-t-bank" x="0" y="123" width="88" height="88"/></svg>